<svg
   xmlns:svg="http://www.w3.org/2000/svg"
   xmlns="http://www.w3.org/2000/svg"
   xmlns:sodipodi="http://sodipodi.sourceforge.net/DTD/sodipodi-0.dtd"
   xmlns:inkscape="http://www.inkscape.org/namespaces/inkscape"
   version="1.1"
   id="Layer_1"
   x="0px"
   y="0px"
   width="512px"
   height="433.16px"
   viewBox="0 0 512 433.16"
   xml:space="preserve">
<style
   type="text/css"
   id="style417">
	.st0{fill:#656263;}
	.st1{fill:url(#XMLID_2_);}
	.st2{fill:#671215;}
	.st3{fill:#440608;}
	.st4{fill:#730E11;}
	.st5{fill:#861115;}
	.st6{fill:#B9191F;}
	.st7{fill:#D01A21;}
	.st8{fill:#D41B22;}
	.st9{fill:#DA1C23;}
	.st10{fill:#771519;}
	.st11{fill:#C7191F;}
	.st12{fill:#BD171E;}
	.st13{fill:#B3161C;}
	.st14{fill:#A2151B;}
	.st15{fill:#A4181D;}
	.st16{fill:#771014;}
	.st17{fill:#600B0D;}
	.st18{fill:#57090B;}
	.st19{fill:#4E080A;}
	.st20{fill:#580C0E;}
	.st21{fill:#9C151A;}
	.st22{fill:#881115;}
	.st23{fill:#921419;}
	.st24{fill:#8D1317;}
	.st25{fill:#861116;}
	.st26{fill:#7D0F13;}
	.st27{fill:#46080A;}
	.st28{fill:#6A0C0F;}
	.st29{fill:#931318;}
	.st30{fill:#B61B21;}
	.st31{fill:#A91A20;}
	.st32{fill:#891317;}
	.st33{fill:#AC171D;}
	.st34{fill:url(#XMLID_4_);}
	.st35{fill:#FFFFFF;}
</style>
<g
   id="g818"
   transform="translate(0,-39.42)">
	<polygon
   id="XMLID_3_"
   class="st0"
   points="32.54,63.26 0,95.81 0,472.58 456.87,472.58 486.05,443.41 486.05,246.04 511.86,220.23 512,39.42 331.47,39.42 307.76,63.26 " />
	
		<linearGradient
   id="XMLID_2_"
   gradientUnits="userSpaceOnUse"
   x1="-515.90387"
   y1="-522.95398"
   x2="-513.85602"
   y2="-522.95398"
   gradientTransform="matrix(0,219.1181,-219.1181,0,-114332.68,113063.77)">
		<stop
   offset="0"
   style="stop-color:#231F20"
   id="stop420" />
		<stop
   offset="0.5"
   style="stop-color:#4F4C4D"
   id="stop422" />
		<stop
   offset="1"
   style="stop-color:#231F20"
   id="stop424" />
	</linearGradient>
	<polygon
   id="XMLID_5_"
   class="st1"
   points="34.79,68.73 5.47,98.05 5.47,468.52 453.23,468.52 480.72,441.16 480.72,217.99 506.53,217.99 506.53,44.89 333.71,44.89 333.71,68.73 "
   style="fill:url(#XMLID_2_)" />
	<polygon
   id="XMLID_6_"
   class="st2"
   points="151.08,237.9 163.42,225.56 255.72,317.72 255.72,317.72 163.28,225.42 150.93,237.76 " />
	<polygon
   id="XMLID_7_"
   class="st2"
   points="266.8,328.8 266.38,328.38 266.38,328.52 266.8,328.8 " />
	<polygon
   id="XMLID_8_"
   class="st2"
   points="249.83,219.39 266.8,236.36 249.97,219.39 " />
	<polygon
   id="XMLID_9_"
   class="st2"
   points="81.5,352.09 81.92,352.51 81.92,398.66 81.5,399.08 81.5,399.08 81.92,398.66 81.92,433.87 95.25,433.87 210.55,318.56 140.27,248.28 81.5,307.2 " />
	<polygon
   id="XMLID_10_"
   class="st2"
   points="266.38,398.8 231.31,433.87 266.52,433.87 " />
	<polygon
   id="XMLID_11_"
   class="st3"
   points="174.64,398.66 174.64,433.87 231.31,433.87 266.38,398.8 266.38,374.39 232.71,340.73 " />
	<polygon
   id="XMLID_12_"
   class="st3"
   points="266.38,328.52 266.38,328.38 255.72,317.72 " />
	<path
   id="XMLID_16_"
   class="st4"
   d="M 81.92,398.66 V 352.37 L 81.5,351.95 59.2,329.5 36.05,352.79 v 75.33 c 0,3.23 2.67,5.89 5.89,5.89 h 4.91 l 34.79,-34.79 z" />
	<polygon
   id="XMLID_17_"
   class="st5"
   points="144.34,231.17 150.93,237.76 163.28,225.28 157.39,219.39 146.45,219.39 36.05,329.78 36.05,352.65 81.5,307.2 140.27,248.28 133.82,241.83 " />
	<polygon
   id="XMLID_18_"
   class="st6"
   points="36.05,306.78 36.05,329.78 146.45,219.39 123.3,219.39 " />
	<polygon
   id="XMLID_19_"
   class="st7"
   points="36.05,283.77 36.05,306.78 123.3,219.39 100.44,219.39 " />
	<polygon
   id="XMLID_20_"
   class="st8"
   points="36.05,260.77 36.05,283.77 100.44,219.39 77.43,219.39 " />
	<polygon
   id="XMLID_21_"
   class="st9"
   points="36.05,260.77 77.43,219.39 56.25,219.39 36.05,239.73 " />
	<polygon
   id="XMLID_22_"
   class="st10"
   points="81.92,433.87 81.92,398.66 81.5,399.08 46.85,433.87 " />
	<path
   id="XMLID_23_"
   class="st7"
   d="m 450.14,225.28 c 0,-3.23 -2.67,-5.89 -5.89,-5.89 h -78.83 l 84.73,84.73 v -78.84 z" />
	<polygon
   id="XMLID_24_"
   class="st11"
   points="319.26,219.39 450.14,350.26 450.14,304.25 365.27,219.39 " />
	<polygon
   id="XMLID_25_"
   class="st12"
   points="296.68,219.39 450.14,372.85 450.14,350.26 319.26,219.39 " />
	<polygon
   id="XMLID_26_"
   class="st13"
   points="273.39,219.39 450.14,396.13 450.14,372.85 296.68,219.39 " />
	<polygon
   id="XMLID_27_"
   class="st14"
   points="450.14,396.13 273.39,219.39 249.97,219.39 266.8,236.36 447.19,416.61 450.14,413.67 " />
	<polygon
   id="XMLID_28_"
   class="st15"
   points="266.8,236.36 249.83,219.39 227.38,219.39 435.83,427.84 447.05,416.61 " />
	<polygon
   id="XMLID_29_"
   class="st16"
   points="435.83,427.84 227.38,219.39 203.82,219.39 418.3,433.87 429.94,433.87 " />
	<polygon
   id="XMLID_30_"
   class="st17"
   points="203.82,219.39 181.23,219.39 395.71,433.87 418.3,433.87 " />
	<polygon
   id="XMLID_31_"
   class="st18"
   points="266.8,328.8 371.87,433.87 395.71,433.87 181.23,219.39 157.39,219.39 163.28,225.28 255.72,317.72 266.38,328.38 " />
	<polygon
   id="XMLID_32_"
   class="st19"
   points="163.42,225.56 151.08,237.9 347.04,433.87 371.87,433.87 266.8,328.8 266.38,328.52 255.72,317.72 " />
	<polygon
   id="XMLID_33_"
   class="st19"
   points="144.34,231.17 133.82,241.83 140.27,248.28 210.55,318.56 210.69,318.42 232.85,340.59 232.71,340.73 266.38,374.39 266.38,373.97 326.28,433.87 347.04,433.87 151.08,237.9 150.93,237.76 " />
	<polygon
   id="XMLID_34_"
   class="st3"
   points="266.38,398.8 266.52,433.87 326.28,433.87 266.38,373.97 266.38,374.39 " />
	<polygon
   id="XMLID_35_"
   class="st20"
   points="174.64,398.66 139.57,433.87 174.64,433.87 " />
	<polygon
   id="XMLID_36_"
   class="st3"
   points="210.69,318.42 210.55,318.56 95.25,433.87 139.57,433.87 174.64,398.66 232.71,340.73 232.85,340.59 " />
	<polygon
   id="XMLID_37_"
   class="st21"
   points="243.52,304.96 243.52,285.74 233.84,295.28 " />
	<polygon
   id="XMLID_38_"
   class="st21"
   points="194.7,219.39 187.69,226.4 197.37,235.94 197.37,219.39 " />
	<polygon
   id="XMLID_39_"
   class="st21"
   points="197.37,304.96 197.37,285.74 187.69,295.28 " />
	<polygon
   id="XMLID_40_"
   class="st21"
   points="187.69,341.57 197.37,351.25 197.37,331.89 " />
	<polygon
   id="XMLID_41_"
   class="st21"
   points="197.37,281.95 197.37,262.59 187.69,272.27 " />
	<polygon
   id="XMLID_42_"
   class="st21"
   points="36.05,258.67 36.19,258.81 36.19,239.59 36.05,239.73 " />
	<polygon
   id="XMLID_43_"
   class="st21"
   points="36.05,304.82 36.19,304.96 36.19,285.74 36.05,285.74 " />
	<polygon
   id="XMLID_44_"
   class="st21"
   points="36.05,351.11 36.19,351.25 36.19,331.89 36.05,332.03 " />
	<polygon
   id="XMLID_45_"
   class="st21"
   points="36.05,327.96 36.19,328.1 36.19,308.74 36.05,308.88 " />
	<polygon
   id="XMLID_46_"
   class="st21"
   points="36.05,281.81 36.19,281.95 36.19,262.59 36.05,262.73 " />
	<polygon
   id="XMLID_47_"
   class="st21"
   points="49.52,249.13 59.2,258.81 59.2,239.45 " />
	<polygon
   id="XMLID_48_"
   class="st21"
   points="49.52,318.42 59.2,328.1 59.2,308.74 " />
	<polygon
   id="XMLID_49_"
   class="st21"
   points="49.52,272.27 59.2,281.95 59.2,262.59 " />
	<polygon
   id="XMLID_50_"
   class="st21"
   points="49.66,226.12 59.2,235.66 59.2,219.39 56.25,219.39 " />
	<polygon
   id="XMLID_51_"
   class="st21"
   points="72.66,249.13 82.2,258.81 82.2,239.45 " />
	<polygon
   id="XMLID_52_"
   class="st21"
   points="72.66,272.27 82.2,281.95 82.2,262.59 " />
	<polygon
   id="XMLID_53_"
   class="st21"
   points="79.25,219.39 72.66,226.12 82.2,235.66 82.2,219.39 " />
	<polygon
   id="XMLID_54_"
   class="st21"
   points="118.67,249.13 128.35,258.81 128.35,239.45 " />
	<polygon
   id="XMLID_55_"
   class="st21"
   points="125.55,219.39 118.67,226.4 128.35,235.94 128.35,219.39 " />
	<polygon
   id="XMLID_56_"
   class="st21"
   points="118.67,364.57 128.35,374.25 128.35,355.03 " />
	<polygon
   id="XMLID_57_"
   class="st21"
   points="118.67,341.57 128.35,351.25 128.35,331.89 " />
	<polygon
   id="XMLID_58_"
   class="st21"
   points="128.35,328.1 128.35,308.74 118.67,318.42 " />
	<polygon
   id="XMLID_59_"
   class="st21"
   points="95.67,249.13 105.35,258.81 105.35,239.45 " />
	<polygon
   id="XMLID_60_"
   class="st21"
   points="102.54,219.39 95.67,226.4 105.35,235.94 105.35,219.39 " />
	<polygon
   id="XMLID_61_"
   class="st21"
   points="95.67,387.72 105.35,397.4 105.35,378.04 " />
	<polygon
   id="XMLID_62_"
   class="st21"
   points="302.85,364.85 312.53,374.53 312.53,355.17 " />
	<polygon
   id="XMLID_63_"
   class="st21"
   points="279.85,387.86 289.53,397.4 289.53,378.18 " />
	<polygon
   id="XMLID_64_"
   class="st21"
   points="95.67,364.57 105.35,374.25 105.35,355.03 " />
	<polygon
   id="XMLID_65_"
   class="st21"
   points="95.67,341.57 105.35,351.25 105.35,331.89 " />
	<polygon
   id="XMLID_66_"
   class="st21"
   points="95.67,272.27 105.35,281.95 105.35,262.59 " />
	<polygon
   id="XMLID_67_"
   class="st21"
   points="118.67,410.44 128.35,420.12 128.35,400.76 " />
	<polygon
   id="XMLID_68_"
   class="st21"
   points="72.38,410.44 82.06,420.12 82.06,400.76 " />
	<polygon
   id="XMLID_69_"
   class="st21"
   points="105.35,433.87 105.35,423.91 95.67,433.45 95.95,433.87 " />
	<polygon
   id="XMLID_70_"
   class="st21"
   points="164.68,249.13 174.36,258.81 174.36,239.45 " />
	<polygon
   id="XMLID_71_"
   class="st21"
   points="171.7,219.39 164.68,226.4 174.36,235.94 174.36,219.39 " />
	<polygon
   id="XMLID_72_"
   class="st21"
   points="164.68,364.57 174.36,374.25 174.36,355.03 " />
	<polygon
   id="XMLID_73_"
   class="st21"
   points="164.68,295.28 174.36,304.96 174.36,285.74 " />
	<polygon
   id="XMLID_74_"
   class="st21"
   points="164.68,318.42 174.36,328.1 174.36,308.74 " />
	<polygon
   id="XMLID_75_"
   class="st21"
   points="164.68,272.27 174.36,281.95 174.36,262.59 " />
	<polygon
   id="XMLID_76_"
   class="st21"
   points="141.68,249.13 151.36,258.81 151.36,239.45 " />
	<polygon
   id="XMLID_77_"
   class="st21"
   points="148.55,219.39 141.68,226.4 151.36,235.94 151.36,219.39 " />
	<polygon
   id="XMLID_78_"
   class="st21"
   points="141.68,295.28 151.36,304.96 151.36,285.74 " />
	<polygon
   id="XMLID_79_"
   class="st21"
   points="141.68,341.57 151.36,351.25 151.36,331.89 " />
	<polygon
   id="XMLID_80_"
   class="st21"
   points="141.68,318.42 151.36,328.1 151.36,308.74 " />
	<polygon
   id="XMLID_81_"
   class="st21"
   points="141.68,272.27 151.36,281.95 151.36,262.59 " />
	<polygon
   id="XMLID_82_"
   class="st21"
   points="231.73,249.13 222.19,239.45 222.19,258.81 " />
	<polygon
   id="XMLID_83_"
   class="st21"
   points="231.73,295.28 222.19,285.74 222.19,304.96 " />
	<polygon
   id="XMLID_84_"
   class="st21"
   points="185.72,249.13 176.04,239.45 176.04,258.81 " />
	<polygon
   id="XMLID_85_"
   class="st21"
   points="176.04,219.39 176.04,235.94 185.72,226.4 178.85,219.39 " />
	<polygon
   id="XMLID_86_"
   class="st21"
   points="185.72,295.28 176.04,285.74 176.04,304.96 " />
	<polygon
   id="XMLID_87_"
   class="st21"
   points="176.04,331.89 176.04,351.25 185.72,341.57 " />
	<polygon
   id="XMLID_88_"
   class="st21"
   points="176.04,378.04 176.04,397.4 185.72,387.72 " />
	<polygon
   id="XMLID_89_"
   class="st21"
   points="139.57,341.57 130.03,331.89 130.03,351.25 " />
	<polygon
   id="XMLID_90_"
   class="st21"
   points="185.72,272.27 176.04,262.59 176.04,281.95 " />
	<polygon
   id="XMLID_91_"
   class="st21"
   points="254.88,272.27 245.2,262.59 245.2,281.95 " />
	<polygon
   id="XMLID_92_"
   class="st21"
   points="246.18,283.07 265.54,283.07 255.86,273.39 " />
	<polygon
   id="XMLID_93_"
   class="st21"
   points="223.32,306.08 242.67,306.08 233,296.4 " />
	<polygon
   id="XMLID_94_"
   class="st21"
   points="242.67,284.76 223.32,284.76 233,294.29 " />
	<polygon
   id="XMLID_95_"
   class="st21"
   points="200.17,329.08 219.39,329.08 209.71,319.4 " />
	<polygon
   id="XMLID_96_"
   class="st21"
   points="200.17,307.76 209.71,317.44 219.39,307.76 " />
	<polygon
   id="XMLID_97_"
   class="st21"
   points="246.18,307.76 255.86,317.44 265.54,307.76 " />
	<polygon
   id="XMLID_98_"
   class="st21"
   points="186.7,340.44 196.38,330.77 177.17,330.77 " />
	<polygon
   id="XMLID_99_"
   class="st21"
   points="177.17,377.06 186.7,386.6 196.38,377.06 " />
	<polygon
   id="XMLID_100_"
   class="st21"
   points="154.02,375.23 173.38,375.23 163.7,365.55 " />
	<polygon
   id="XMLID_101_"
   class="st21"
   points="196.38,236.92 186.7,227.24 177.17,236.92 " />
	<polygon
   id="XMLID_102_"
   class="st21"
   points="223.32,260.07 242.67,260.07 233,250.39 " />
	<polygon
   id="XMLID_103_"
   class="st21"
   points="200.17,283.07 219.39,283.07 209.71,273.39 " />
	<polygon
   id="XMLID_104_"
   class="st21"
   points="196.38,306.08 186.7,296.4 177.17,306.08 " />
	<polygon
   id="XMLID_106_"
   class="st21"
   points="173.38,353.77 154.02,353.77 163.7,363.45 " />
	<polygon
   id="XMLID_107_"
   class="st21"
   points="200.17,353.77 209.71,363.45 219.39,353.77 " />
	<polygon
   id="XMLID_108_"
   class="st21"
   points="117.55,411.56 108.01,421.24 127.23,421.24 " />
	<polygon
   id="XMLID_112_"
   class="st21"
   points="70.84,411.56 61.16,421.24 80.52,421.24 " />
	<polygon
   id="XMLID_113_"
   class="st21"
   points="127.23,399.92 108.01,399.92 117.55,409.46 " />
	<polygon
   id="XMLID_114_"
   class="st21"
   points="108.01,375.23 127.23,375.23 117.55,365.55 " />
	<polygon
   id="XMLID_115_"
   class="st21"
   points="85.01,398.24 104.22,398.24 94.54,388.56 " />
	<polygon
   id="XMLID_116_"
   class="st21"
   points="85.01,423.07 94.54,432.75 104.22,423.07 " />
	<polygon
   id="XMLID_117_"
   class="st21"
   points="199.05,219.39 199.05,235.94 208.73,226.4 201.85,219.39 " />
	<polygon
   id="XMLID_118_"
   class="st21"
   points="208.73,272.27 199.05,262.59 199.05,281.95 " />
	<polygon
   id="XMLID_119_"
   class="st21"
   points="47.41,249.13 37.87,239.45 37.87,258.81 " />
	<polygon
   id="XMLID_120_"
   class="st21"
   points="47.41,295.28 37.87,285.74 37.87,304.96 " />
	<polygon
   id="XMLID_121_"
   class="st21"
   points="47.41,341.57 37.87,331.89 37.87,351.25 " />
	<polygon
   id="XMLID_122_"
   class="st21"
   points="47.41,318.42 37.87,308.74 37.87,328.1 " />
	<polygon
   id="XMLID_123_"
   class="st21"
   points="70.56,249.13 60.88,239.45 60.88,258.81 " />
	<polygon
   id="XMLID_124_"
   class="st21"
   points="70.56,295.28 60.88,285.74 60.88,304.96 " />
	<polygon
   id="XMLID_125_"
   class="st21"
   points="70.56,318.42 60.88,308.74 60.88,328.1 " />
	<polygon
   id="XMLID_126_"
   class="st21"
   points="70.56,272.27 60.88,262.59 60.88,281.95 " />
	<polygon
   id="XMLID_127_"
   class="st21"
   points="60.88,219.39 60.88,235.66 70.56,226.12 63.82,219.39 " />
	<polygon
   id="XMLID_128_"
   class="st21"
   points="130.03,219.39 130.03,235.94 139.57,226.4 132.7,219.39 " />
	<polygon
   id="XMLID_146_"
   class="st21"
   points="139.57,295.28 130.03,285.74 130.03,304.96 " />
	<polygon
   id="XMLID_147_"
   class="st21"
   points="139.57,318.42 130.03,308.74 130.03,328.1 " />
	<polygon
   id="XMLID_148_"
   class="st21"
   points="139.57,272.27 130.03,262.59 130.03,281.95 " />
	<polygon
   id="XMLID_149_"
   class="st21"
   points="93.56,249.13 83.88,239.45 83.88,258.81 " />
	<polygon
   id="XMLID_150_"
   class="st21"
   points="83.88,219.39 83.88,235.94 93.56,226.4 86.69,219.39 " />
	<polygon
   id="XMLID_151_"
   class="st21"
   points="93.56,387.72 83.88,378.04 83.88,397.4 " />
	<polygon
   id="XMLID_152_"
   class="st21"
   points="361.35,398.24 380.56,398.24 370.88,388.56 " />
	<polygon
   id="XMLID_153_"
   class="st21"
   points="369.9,387.72 360.22,378.04 360.22,397.4 " />
	<polygon
   id="XMLID_154_"
   class="st21"
   points="93.56,364.57 83.88,355.03 83.88,374.25 " />
	<polygon
   id="XMLID_155_"
   class="st21"
   points="93.56,295.28 83.88,285.74 83.88,304.96 " />
	<polygon
   id="XMLID_156_"
   class="st21"
   points="93.56,272.27 83.88,262.59 83.88,281.95 " />
	<polygon
   id="XMLID_157_"
   class="st21"
   points="116.57,410.58 106.89,400.9 106.89,420.12 " />
	<polygon
   id="XMLID_158_"
   class="st21"
   points="93.28,433.87 93.56,433.59 83.88,423.91 83.88,433.87 " />
	<polygon
   id="XMLID_159_"
   class="st21"
   points="116.57,249.13 106.89,239.45 106.89,258.81 " />
	<polygon
   id="XMLID_160_"
   class="st21"
   points="300.75,272.27 291.07,262.59 291.07,281.95 " />
	<polygon
   id="XMLID_161_"
   class="st21"
   points="106.89,219.39 106.89,235.94 116.57,226.4 109.69,219.39 " />
	<polygon
   id="XMLID_162_"
   class="st21"
   points="116.57,364.57 106.89,355.03 106.89,374.25 " />
	<polygon
   id="XMLID_163_"
   class="st21"
   points="116.57,341.57 106.89,331.89 106.89,351.25 " />
	<polygon
   id="XMLID_164_"
   class="st21"
   points="116.57,272.27 106.89,262.59 106.89,281.95 " />
	<polygon
   id="XMLID_165_"
   class="st21"
   points="162.72,249.13 153.04,239.45 153.04,258.81 " />
	<polygon
   id="XMLID_166_"
   class="st21"
   points="153.04,219.39 153.04,235.94 162.72,226.26 155.84,219.39 " />
	<polygon
   id="XMLID_167_"
   class="st21"
   points="162.72,364.57 153.04,354.89 153.04,374.25 " />
	<polygon
   id="XMLID_168_"
   class="st21"
   points="347.04,364.57 337.36,354.89 337.36,374.25 " />
	<polygon
   id="XMLID_169_"
   class="st21"
   points="199.05,354.89 199.05,374.25 208.73,364.57 " />
	<polygon
   id="XMLID_170_"
   class="st21"
   points="162.72,295.28 153.04,285.6 153.04,304.96 " />
	<polygon
   id="XMLID_171_"
   class="st21"
   points="162.72,318.42 153.04,308.74 153.04,328.1 " />
	<polygon
   id="XMLID_172_"
   class="st21"
   points="162.72,272.27 153.04,262.59 153.04,281.81 " />
	<polygon
   id="XMLID_173_"
   class="st21"
   points="48.53,273.53 38.15,283.77 48.53,294.15 58.77,283.77 " />
	<polygon
   id="XMLID_174_"
   class="st21"
   points="48.53,296.54 38.15,306.92 48.53,317.16 58.77,306.92 " />
	<polygon
   id="XMLID_175_"
   class="st21"
   points="38.15,237.62 48.53,248 58.77,237.62 48.53,227.24 " />
	<polygon
   id="XMLID_176_"
   class="st21"
   points="38.15,260.63 48.53,271.01 58.77,260.63 48.53,250.39 " />
	<polygon
   id="XMLID_177_"
   class="st21"
   points="71.54,273.53 61.16,283.77 71.54,294.15 81.92,283.77 " />
	<polygon
   id="XMLID_178_"
   class="st21"
   points="71.54,296.54 61.16,306.92 71.54,317.16 81.92,306.92 " />
	<polygon
   id="XMLID_179_"
   class="st21"
   points="61.16,237.62 71.54,248 81.92,237.62 71.54,227.24 " />
	<polygon
   id="XMLID_180_"
   class="st21"
   points="71.54,271.01 81.92,260.63 71.54,250.39 61.16,260.63 " />
	<polygon
   id="XMLID_181_"
   class="st21"
   points="94.54,273.53 84.3,283.77 94.54,294.15 104.92,283.77 " />
	<polygon
   id="XMLID_182_"
   class="st21"
   points="94.54,365.83 84.3,376.21 94.54,386.45 104.92,376.21 " />
	<polygon
   id="XMLID_183_"
   class="st21"
   points="94.54,271.01 104.92,260.63 94.54,250.39 84.3,260.63 " />
	<polygon
   id="XMLID_184_"
   class="st21"
   points="107.31,237.76 117.55,248.14 127.93,237.76 117.55,227.52 " />
	<polygon
   id="XMLID_185_"
   class="st21"
   points="117.55,342.83 107.31,353.07 117.55,363.45 127.93,353.07 " />
	<polygon
   id="XMLID_186_"
   class="st21"
   points="127.93,260.63 117.55,250.39 107.31,260.63 117.55,271.01 " />
	<polygon
   id="XMLID_187_"
   class="st21"
   points="130.31,237.76 140.69,248.14 150.93,237.76 140.69,227.52 " />
	<polygon
   id="XMLID_188_"
   class="st21"
   points="140.69,294.15 150.93,283.77 140.69,273.53 130.31,283.77 " />
	<polygon
   id="XMLID_189_"
   class="st21"
   points="140.69,319.68 130.31,330.06 140.69,340.3 150.93,330.06 " />
	<polygon
   id="XMLID_190_"
   class="st21"
   points="130.31,260.63 140.69,271.01 150.93,260.63 140.69,250.39 " />
	<polygon
   id="XMLID_191_"
   class="st21"
   points="153.32,237.76 163.7,248.14 174.08,237.76 163.7,227.52 " />
	<polygon
   id="XMLID_192_"
   class="st21"
   points="163.7,296.54 153.32,306.92 163.7,317.16 174.08,306.92 " />
	<polygon
   id="XMLID_193_"
   class="st21"
   points="163.7,271.01 174.08,260.63 163.7,250.39 153.32,260.63 " />
	<polygon
   id="XMLID_194_"
   class="st21"
   points="197.08,260.63 186.7,250.39 176.46,260.63 186.7,271.01 " />
	<polygon
   id="XMLID_195_"
   class="st21"
   points="197.08,283.49 186.7,273.11 176.46,283.49 186.7,293.87 " />
	<polygon
   id="XMLID_196_"
   class="st21"
   points="220.51,328.1 220.51,308.88 210.83,318.42 " />
	<polygon
   id="XMLID_197_"
   class="st21"
   points="199.19,328.1 208.73,318.42 199.19,308.74 " />
	<polygon
   id="XMLID_198_"
   class="st21"
   points="254.88,318.42 245.2,308.74 245.2,328.1 " />
	<polygon
   id="XMLID_199_"
   class="st21"
   points="277.74,295.28 268.06,285.6 268.06,304.96 " />
	<polygon
   id="XMLID_200_"
   class="st21"
   points="277.74,341.57 268.06,331.89 268.06,351.25 " />
	<polygon
   id="XMLID_201_"
   class="st21"
   points="300.75,318.42 291.07,308.74 291.07,328.1 " />
	<polygon
   id="XMLID_202_"
   class="st21"
   points="326.28,387.72 335.82,397.4 335.82,378.04 " />
	<polygon
   id="XMLID_203_"
   class="st21"
   points="302.85,410.86 312.53,420.54 312.53,401.18 " />
	<polygon
   id="XMLID_204_"
   class="st21"
   points="291.21,401.18 291.21,420.4 300.89,410.86 " />
	<polygon
   id="XMLID_205_"
   class="st21"
   points="127.09,398.24 106.89,378.04 106.89,398.24 " />
	<polygon
   id="XMLID_206_"
   class="st21"
   points="108.15,376.92 128.35,397.12 128.35,376.92 " />
	<polygon
   id="XMLID_207_"
   class="st21"
   points="104.08,421.24 83.88,401.04 83.88,421.24 " />
	<polygon
   id="XMLID_208_"
   class="st21"
   points="85.15,399.92 105.35,420.12 105.35,399.92 " />
	<polygon
   id="XMLID_209_"
   class="st21"
   points="173.24,352.23 153.04,331.89 153.04,352.23 " />
	<polygon
   id="XMLID_210_"
   class="st21"
   points="154.16,330.77 174.36,350.97 174.36,330.77 " />
	<polygon
   id="XMLID_211_"
   class="st21"
   points="150.23,375.23 130.03,355.03 130.03,375.23 " />
	<polygon
   id="XMLID_212_"
   class="st21"
   points="131.16,353.77 151.36,373.97 151.36,353.77 " />
	<polygon
   id="XMLID_213_"
   class="st21"
   points="199.05,306.08 199.19,306.08 219.25,306.08 199.05,285.88 " />
	<polygon
   id="XMLID_214_"
   class="st21"
   points="200.17,284.76 220.51,304.96 220.51,284.76 " />
	<polygon
   id="XMLID_215_"
   class="st21"
   points="176.04,308.88 176.04,329.08 196.24,329.08 " />
	<polygon
   id="XMLID_216_"
   class="st21"
   points="242.39,283.07 222.19,262.87 222.19,283.07 " />
	<polygon
   id="XMLID_217_"
   class="st21"
   points="243.52,281.81 243.52,261.61 223.32,261.61 " />
	<polygon
   id="XMLID_218_"
   class="st21"
   points="150.23,421.38 130.03,401.18 130.03,421.38 " />
	<polygon
   id="XMLID_219_"
   class="st21"
   points="106.89,424.19 106.89,433.87 116.57,433.87 " />
	<polygon
   id="XMLID_220_"
   class="st21"
   points="128.35,433.87 128.35,423.07 108.15,423.07 118.95,433.87 " />
	<polygon
   id="XMLID_221_"
   class="st21"
   points="81.92,433.87 81.92,423.07 61.72,423.07 72.52,433.87 " />
	<polygon
   id="XMLID_222_"
   class="st21"
   points="358.68,433.87 358.68,423.07 338.48,423.07 349.28,433.87 " />
	<polygon
   id="XMLID_223_"
   class="st21"
   points="196.24,375.37 176.04,355.17 176.04,375.37 " />
	<polygon
   id="XMLID_224_"
   class="st21"
   points="177.31,353.91 197.37,374.25 197.37,353.91 " />
	<polygon
   id="XMLID_225_"
   class="st21"
   points="154.16,377.06 174.36,397.26 174.36,377.06 " />
	<polygon
   id="XMLID_226_"
   class="st21"
   points="242.39,329.22 222.19,309.02 222.19,329.22 " />
	<polygon
   id="XMLID_227_"
   class="st21"
   points="223.32,307.9 243.52,328.1 243.52,307.9 " />
	<polygon
   id="XMLID_228_"
   class="st21"
   points="219.25,352.37 199.05,332.03 199.05,352.37 " />
	<polygon
   id="XMLID_229_"
   class="st21"
   points="200.17,330.91 220.51,351.11 220.51,330.91 " />
	<polygon
   id="XMLID_230_"
   class="st21"
   points="265.4,306.22 245.2,286.02 245.2,306.22 " />
	<polygon
   id="XMLID_231_"
   class="st21"
   points="246.32,284.9 266.52,305.1 266.52,284.9 " />
	<polygon
   id="XMLID_232_"
   class="st21"
   points="71.54,224.72 76.87,219.39 66.21,219.39 " />
	<polygon
   id="XMLID_233_"
   class="st21"
   points="94.54,224.72 99.88,219.39 89.35,219.39 " />
	<polygon
   id="XMLID_234_"
   class="st21"
   points="117.55,225 123.16,219.39 112.08,219.39 " />
	<polygon
   id="XMLID_235_"
   class="st21"
   points="140.69,225 146.17,219.39 135.08,219.39 " />
	<polygon
   id="XMLID_236_"
   class="st21"
   points="163.7,225 169.17,219.39 158.09,219.39 " />
	<polygon
   id="XMLID_237_"
   class="st21"
   points="186.7,224.72 192.04,219.39 181.37,219.39 " />
	<polygon
   id="XMLID_238_"
   class="st21"
   points="243.52,433.87 243.52,424.05 233.84,433.73 233.98,433.87 " />
	<polygon
   id="XMLID_239_"
   class="st21"
   points="302.85,433.87 312.39,433.87 312.39,422.51 301.87,411.98 291.49,422.51 " />
	<polygon
   id="XMLID_240_"
   class="st21"
   points="324.03,387.58 314.35,378.04 314.35,397.26 " />
	<polygon
   id="XMLID_241_"
   class="st21"
   points="335.68,399.36 325.16,388.84 314.63,399.36 335.68,420.26 " />
	<polygon
   id="XMLID_242_"
   class="st21"
   points="312.39,353.35 291.07,332.03 291.07,353.07 301.87,363.87 " />
	<polygon
   id="XMLID_243_"
   class="st21"
   points="291.49,330.2 312.53,351.11 312.53,330.2 302.01,319.68 " />
	<polygon
   id="XMLID_244_"
   class="st21"
   points="302.01,273.25 291.49,283.77 312.53,304.68 312.53,283.77 " />
	<polygon
   id="XMLID_245_"
   class="st21"
   points="302.01,409.88 312.53,399.36 291.07,378.04 291.07,398.94 " />
	<polygon
   id="XMLID_246_"
   class="st21"
   points="278.72,386.74 289.24,376.21 268.2,355.31 268.2,376.21 " />
	<polygon
   id="XMLID_247_"
   class="st21"
   points="289.67,353.35 279.15,342.83 268.62,353.35 289.67,374.39 " />
	<polygon
   id="XMLID_248_"
   class="st21"
   points="314.49,375.65 325.44,386.6 335.82,376.21 314.49,354.75 " />
	<polygon
   id="XMLID_249_"
   class="st21"
   points="278.58,296.54 268.06,306.92 289.1,327.96 289.1,306.92 " />
	<polygon
   id="XMLID_250_"
   class="st21"
   points="348.44,365.55 337.92,376.07 358.82,396.98 358.82,376.07 " />
	<polygon
   id="XMLID_251_"
   class="st21"
   points="131.02,423.07 140.69,432.75 150.37,423.07 " />
	<polygon
   id="XMLID_252_"
   class="st21"
   points="139.43,433.87 139.57,433.59 130.03,423.91 130.03,433.87 " />
	<polygon
   id="XMLID_253_"
   class="st21"
   points="139.57,387.58 130.03,378.04 130.03,397.26 " />
	<polygon
   id="XMLID_254_"
   class="st21"
   points="347.74,411.42 338.06,420.96 357.42,420.96 " />
	<polygon
   id="XMLID_255_"
   class="st21"
   points="346.62,410.3 336.94,400.62 336.94,419.98 " />
	<polygon
   id="XMLID_256_"
   class="st21"
   points="323.89,433.87 324.17,433.59 314.49,423.91 314.49,433.87 " />
	<polygon
   id="XMLID_257_"
   class="st21"
   points="277.6,433.87 289.24,422.22 268.2,401.18 268.2,433.87 " />
	<polygon
   id="XMLID_258_"
   class="st21"
   points="289.67,424.47 280.13,433.87 289.67,433.87 " />
	<polygon
   id="XMLID_259_"
   class="st21"
   points="382.11,399.92 360.78,399.92 382.25,421.38 403.57,421.38 " />
	<polygon
   id="XMLID_260_"
   class="st21"
   points="84.3,237.76 94.68,248.14 104.92,237.76 94.68,227.52 " />
	<polygon
   id="XMLID_261_"
   class="st21"
   points="221.77,352.37 245.2,375.79 245.2,353.07 244.5,352.37 " />
	<polygon
   id="XMLID_262_"
   class="st21"
   points="199.19,306.08 199.05,306.08 196.38,306.08 177.17,306.08 175.2,306.08 199.19,330.06 199.19,328.1 199.19,308.74 " />
	<polygon
   id="XMLID_263_"
   class="st21"
   points="266.38,433.87 266.38,398.8 243.38,421.8 255.44,433.87 " />
	<polygon
   id="XMLID_264_"
   class="st21"
   points="223.18,331.05 244.5,352.37 245.2,353.07 266.38,374.25 266.38,331.05 " />
	<polygon
   id="XMLID_265_"
   class="st3"
   points="221.91,331.61 221.91,350.83 231.59,341.15 " />
	<polygon
   id="XMLID_266_"
   class="st3"
   points="153.32,283.77 163.7,294.15 173.94,283.77 163.7,273.53 " />
	<polygon
   id="XMLID_267_"
   class="st3"
   points="140.69,296.4 130.31,306.78 140.69,317.02 151.08,306.78 " />
	<polygon
   id="XMLID_268_"
   class="st19"
   points="127.79,329.92 117.55,319.54 107.17,329.92 117.55,340.3 " />
	<polygon
   id="XMLID_269_"
   class="st19"
   points="104.78,352.93 94.54,342.69 84.16,352.93 94.54,363.31 " />
	<polygon
   id="XMLID_270_"
   class="st3"
   points="130.88,377.06 140.41,386.6 150.09,377.06 " />
	<polygon
   id="XMLID_271_"
   class="st22"
   points="139.57,249.13 130.03,239.45 130.03,258.81 " />
	<polygon
   id="XMLID_272_"
   class="st3"
   points="218.69,236.22 209.85,227.24 200.87,236.22 " />
	<polygon
   id="XMLID_273_"
   class="st23"
   points="222.61,237.76 233,248.14 243.38,237.76 233,227.52 " />
	<polygon
   id="XMLID_274_"
   class="st23"
   points="217.71,219.39 210.83,226.4 220.51,235.94 220.51,219.39 " />
	<polygon
   id="XMLID_275_"
   class="st23"
   points="233.84,249.13 243.52,258.81 243.52,239.45 " />
	<polygon
   id="XMLID_276_"
   class="st24"
   points="240.71,219.39 233.84,226.4 243.52,235.94 243.52,219.39 " />
	<polygon
   id="XMLID_277_"
   class="st25"
   points="263.86,219.39 256.84,226.4 266.52,235.94 266.52,219.39 " />
	<polygon
   id="XMLID_278_"
   class="st23"
   points="256.84,272.27 266.52,281.95 266.52,262.59 " />
	<polygon
   id="XMLID_279_"
   class="st4"
   points="335.82,259.09 335.82,239.73 326.14,249.41 " />
	<polygon
   id="XMLID_280_"
   class="st26"
   points="324.17,249.41 314.49,239.73 314.49,259.09 " />
	<polygon
   id="XMLID_281_"
   class="st25"
   points="289.39,258.81 289.39,239.45 279.85,249.13 " />
	<polygon
   id="XMLID_282_"
   class="st24"
   points="277.74,249.13 268.06,239.45 268.06,258.81 " />
	<polygon
   id="XMLID_283_"
   class="st23"
   points="222.19,219.39 222.19,235.94 231.73,226.4 224.86,219.39 " />
	<polygon
   id="XMLID_284_"
   class="st25"
   points="381.69,331.89 372.01,341.57 381.69,351.25 " />
	<polygon
   id="XMLID_285_"
   class="st24"
   points="360.36,351.11 369.9,341.57 360.36,331.89 " />
	<polygon
   id="XMLID_286_"
   class="st24"
   points="245.2,219.39 245.2,235.94 254.88,226.4 247.86,219.39 " />
	<polygon
   id="XMLID_287_"
   class="st4"
   points="309.44,219.39 302.85,226.12 312.53,235.8 312.53,219.39 " />
	<polygon
   id="XMLID_288_"
   class="st26"
   points="290.93,219.39 290.93,235.8 300.61,226.12 293.87,219.39 " />
	<polygon
   id="XMLID_289_"
   class="st23"
   points="265.54,261.61 246.18,261.61 255.86,271.29 " />
	<polygon
   id="XMLID_290_"
   class="st3"
   points="150.23,352.23 140.69,342.55 131.02,352.23 " />
	<polygon
   id="XMLID_291_"
   class="st26"
   points="406.37,331.89 406.37,351.25 416.05,341.57 " />
	<polygon
   id="XMLID_292_"
   class="st26"
   points="407.36,352.23 426.71,352.23 417.03,342.55 " />
	<polygon
   id="XMLID_293_"
   class="st24"
   points="265.54,236.92 255.86,227.24 246.18,236.92 " />
	<path
   id="XMLID_294_"
   class="st27"
   d="m 450.14,235.1 v -9.82 c 0,-2.1 -1.12,-3.79 -2.81,-4.91 l -5.89,5.89 z" />
	<polygon
   id="XMLID_295_"
   class="st27"
   points="401.88,219.39 394.87,226.4 404.69,235.94 404.69,219.39 " />
	<polygon
   id="XMLID_296_"
   class="st18"
   points="383.23,219.39 383.23,235.94 392.91,226.4 386.03,219.39 " />
	<polygon
   id="XMLID_297_"
   class="st17"
   points="356.3,219.39 349.56,226.26 359.24,235.94 359.24,219.39 " />
	<polygon
   id="XMLID_298_"
   class="st28"
   points="337.78,219.39 337.78,235.94 347.46,226.26 340.73,219.39 " />
	<polygon
   id="XMLID_299_"
   class="st24"
   points="403.57,375.23 393.89,365.55 384.35,375.23 " />
	<polygon
   id="XMLID_300_"
   class="st24"
   points="383.23,354.89 383.23,374.25 392.91,364.57 " />
	<polygon
   id="XMLID_301_"
   class="st23"
   points="349,364.57 358.68,374.25 358.68,355.03 " />
	<polygon
   id="XMLID_302_"
   class="st4"
   points="372.29,295.7 381.83,305.38 381.83,286.02 " />
	<polygon
   id="XMLID_303_"
   class="st23"
   points="336.24,332.45 326.7,341.99 336.24,351.67 " />
	<polygon
   id="XMLID_304_"
   class="st17"
   points="395.15,272.69 404.83,282.37 404.83,263.15 " />
	<polygon
   id="XMLID_305_"
   class="st28"
   points="430.08,328.52 449.44,328.52 439.9,318.84 " />
	<polygon
   id="XMLID_306_"
   class="st28"
   points="438.78,317.86 429.24,308.18 429.24,327.54 " />
	<polygon
   id="XMLID_307_"
   class="st4"
   points="404.83,328.1 404.83,308.88 395.15,318.42 " />
	<polygon
   id="XMLID_308_"
   class="st26"
   points="383.37,308.74 383.37,328.1 393.05,318.42 " />
	<polygon
   id="XMLID_309_"
   class="st23"
   points="279.71,295.28 289.39,304.96 289.39,285.6 " />
	<polygon
   id="XMLID_310_"
   class="st17"
   points="427.56,285.6 417.88,295.28 427.56,304.96 " />
	<polygon
   id="XMLID_311_"
   class="st28"
   points="415.91,295.28 406.09,285.6 406.09,304.96 " />
	<polygon
   id="XMLID_312_"
   class="st27"
   points="427.98,259.37 427.98,240.01 418.3,249.69 " />
	<polygon
   id="XMLID_313_"
   class="st24"
   points="314.63,285.74 314.63,304.96 324.31,295.28 " />
	<polygon
   id="XMLID_314_"
   class="st26"
   points="347.18,272.27 337.5,262.59 337.5,281.95 " />
	<polygon
   id="XMLID_315_"
   class="st27"
   points="441.16,272.41 450.14,281.25 450.14,263.57 " />
	<polygon
   id="XMLID_316_"
   class="st18"
   points="438.78,272.41 429.24,262.73 429.24,282.09 " />
	<polygon
   id="XMLID_317_"
   class="st28"
   points="370.18,249.41 360.5,239.73 360.5,258.95 " />
	<polygon
   id="XMLID_318_"
   class="st23"
   points="265.4,260.07 245.2,239.73 245.2,260.07 " />
	<polygon
   id="XMLID_319_"
   class="st24"
   points="246.32,238.61 266.52,258.81 266.52,238.61 " />
	<polygon
   id="XMLID_320_"
   class="st26"
   points="289.53,235.8 289.53,219.39 273.11,219.39 " />
	<polygon
   id="XMLID_321_"
   class="st23"
   points="404.97,399.92 404.97,399.92 384.77,399.92 404.97,420.12 " />
	<polygon
   id="XMLID_322_"
   class="st23"
   points="426.43,421.38 406.37,401.18 406.37,421.38 " />
	<polygon
   id="XMLID_323_"
   class="st24"
   points="384.77,377.06 405.11,397.26 405.11,377.06 " />
	<polygon
   id="XMLID_324_"
   class="st24"
   points="406.37,378.32 406.37,398.52 426.43,398.52 " />
	<polygon
   id="XMLID_325_"
   class="st23"
   points="209.71,225 215.32,219.39 204.24,219.39 " />
	<polygon
   id="XMLID_326_"
   class="st24"
   points="232.85,225 238.33,219.39 227.24,219.39 " />
	<polygon
   id="XMLID_327_"
   class="st25"
   points="255.86,225 261.33,219.39 250.25,219.39 " />
	<polygon
   id="XMLID_328_"
   class="st4"
   points="302.01,225 307.48,219.39 296.4,219.39 " />
	<polygon
   id="XMLID_329_"
   class="st17"
   points="348.72,225 354.19,219.39 343.11,219.39 " />
	<polygon
   id="XMLID_330_"
   class="st27"
   points="394.17,225 399.64,219.39 388.56,219.39 " />
	<path
   id="XMLID_331_"
   class="st27"
   d="m 445.51,219.67 c -0.42,-0.14 -0.84,-0.28 -1.26,-0.28 h -9.54 l 5.47,5.47 z" />
	<polygon
   id="XMLID_332_"
   class="st23"
   points="268.06,283.77 278.72,294.44 289.24,284.05 268.06,262.73 " />
	<polygon
   id="XMLID_333_"
   class="st24"
   points="269.89,261.47 289.39,261.47 289.39,260.91 279,250.39 268.48,260.91 289.39,281.81 289.39,280.97 " />
	<polygon
   id="XMLID_334_"
   class="st25"
   points="312.11,260.91 291.07,240.01 291.07,260.91 " />
	<polygon
   id="XMLID_335_"
   class="st26"
   points="291.35,237.9 312.53,259.09 312.53,237.62 302.01,227.1 " />
	<polygon
   id="XMLID_336_"
   class="st23"
   points="328.38,322.77 314.49,308.88 314.49,329.78 325.16,340.59 335.4,330.35 327.82,322.77 " />
	<polygon
   id="XMLID_337_"
   class="st24"
   points="314.92,306.92 330.77,322.77 335.82,322.77 335.82,306.92 325.3,296.54 " />
	<polygon
   id="XMLID_338_"
   class="st26"
   points="325.3,250.53 314.92,261.05 335.82,282.09 335.82,261.05 " />
	<polygon
   id="XMLID_339_"
   class="st4"
   points="317.16,219.39 314.49,219.39 314.49,237.76 325.3,248.57 335.82,238.19 " />
	<polygon
   id="XMLID_340_"
   class="st28"
   points="335.82,235.8 335.82,219.39 319.4,219.39 " />
	<polygon
   id="XMLID_341_"
   class="st23"
   points="358.26,353.21 337.36,332.45 337.36,353.07 347.88,363.59 " />
	<polygon
   id="XMLID_342_"
   class="st25"
   points="337.36,307.2 347.88,317.58 358.4,307.2 337.36,286.16 " />
	<polygon
   id="XMLID_343_"
   class="st26"
   points="348.44,273.81 337.92,284.34 358.82,305.24 358.82,284.34 " />
	<polygon
   id="XMLID_344_"
   class="st28"
   points="337.92,238.04 358.82,259.09 358.82,237.34 348.72,227.24 " />
	<polygon
   id="XMLID_345_"
   class="st25"
   points="271.01,219.39 268.06,219.39 268.06,237.34 278.86,248.28 289.39,237.76 " />
	<polygon
   id="XMLID_346_"
   class="st25"
   points="360.5,329.78 370.88,340.3 381.4,329.78 360.5,308.88 " />
	<polygon
   id="XMLID_347_"
   class="st4"
   points="360.5,283.91 370.88,294.44 381.4,283.91 360.5,263.01 " />
	<polygon
   id="XMLID_348_"
   class="st28"
   points="371.31,250.53 360.92,261.05 381.83,282.09 381.83,261.05 " />
	<polygon
   id="XMLID_349_"
   class="st24"
   points="381.83,352.79 371.31,342.41 360.92,352.79 381.83,373.83 " />
	<polygon
   id="XMLID_350_"
   class="st18"
   points="381.83,235.8 381.83,219.39 365.41,219.39 " />
	<polygon
   id="XMLID_351_"
   class="st26"
   points="404.55,329.92 394.17,319.4 383.65,329.92 404.55,350.83 " />
	<polygon
   id="XMLID_352_"
   class="st4"
   points="383.23,306.92 393.61,317.3 404.13,306.92 383.23,285.88 " />
	<polygon
   id="XMLID_353_"
   class="st17"
   points="383.23,260.63 393.75,271.29 404.27,260.77 383.23,239.73 " />
	<polygon
   id="XMLID_354_"
   class="st18"
   points="383.65,237.76 404.55,258.81 404.55,237.76 394.17,227.38 " />
	<polygon
   id="XMLID_355_"
   class="st28"
   points="427.84,306.92 417.17,296.26 406.65,306.64 427.84,327.96 " />
	<polygon
   id="XMLID_356_"
   class="st17"
   points="406.51,283.91 416.89,294.44 427.41,283.91 406.51,263.01 " />
	<polygon
   id="XMLID_357_"
   class="st27"
   points="409.18,219.39 406.51,219.39 406.51,237.76 416.89,248.28 427.41,237.76 " />
	<polygon
   id="XMLID_358_"
   class="st27"
   points="427.84,235.8 427.84,219.39 411.42,219.39 " />
	<polygon
   id="XMLID_359_"
   class="st18"
   points="450.14,283.49 440.04,273.39 429.52,283.91 450.14,304.39 " />
	<polygon
   id="XMLID_360_"
   class="st27"
   points="450.14,261.33 450.14,260.63 429.52,240.01 429.52,260.91 439.9,271.43 " />
	<polygon
   id="XMLID_361_"
   class="st29"
   points="58.63,376.21 36.05,353.49 36.05,398.8 " />
	<polygon
   id="XMLID_362_"
   class="st23"
   points="429.94,433.87 434.43,429.38 428.26,423.07 408.2,423.07 419,433.87 " />
	<polygon
   id="XMLID_363_"
   class="st25"
   points="448.74,398.38 427.27,377.06 407.36,377.06 428.68,398.38 " />
	<polygon
   id="XMLID_364_"
   class="st26"
   points="428.4,354.05 408.34,354.05 429.8,375.51 449.72,375.51 " />
	<polygon
   id="XMLID_365_"
   class="st4"
   points="431.06,354.05 450.14,373.13 450.14,354.05 " />
	<polygon
   id="XMLID_366_"
   class="st28"
   points="430.78,330.77 450.14,350.12 450.14,330.77 " />
	<polygon
   id="XMLID_367_"
   class="st30"
   points="128.35,304.96 128.35,285.74 118.67,295.28 " />
	<polygon
   id="XMLID_368_"
   class="st30"
   points="128.35,281.95 128.35,262.59 118.67,272.27 " />
	<polygon
   id="XMLID_369_"
   class="st30"
   points="105.35,304.96 105.35,285.74 95.67,295.28 " />
	<polygon
   id="XMLID_370_"
   class="st30"
   points="95.67,318.42 105.35,328.1 105.35,308.74 " />
	<polygon
   id="XMLID_371_"
   class="st30"
   points="93.56,341.57 83.88,331.89 83.88,351.25 " />
	<polygon
   id="XMLID_372_"
   class="st30"
   points="93.56,318.42 83.88,308.74 83.88,328.1 " />
	<polygon
   id="XMLID_373_"
   class="st30"
   points="116.57,295.28 106.89,285.74 106.89,304.96 " />
	<polygon
   id="XMLID_374_"
   class="st30"
   points="116.57,318.42 106.89,308.74 106.89,328.1 " />
	<polygon
   id="XMLID_375_"
   class="st30"
   points="84.3,306.92 94.54,317.16 104.92,306.92 94.54,296.54 " />
	<polygon
   id="XMLID_376_"
   class="st30"
   points="104.92,330.06 94.54,319.68 84.3,330.06 94.54,340.3 " />
	<polygon
   id="XMLID_377_"
   class="st31"
   points="107.31,283.77 117.55,294.15 127.93,283.77 117.55,273.53 " />
	<polygon
   id="XMLID_378_"
   class="st31"
   points="127.93,306.92 117.55,296.54 107.31,306.92 117.55,317.16 " />
	<polygon
   id="XMLID_379_"
   class="st32"
   points="174.64,433.87 174.64,423.07 154.44,423.07 165.24,433.87 " />
	<polygon
   id="XMLID_380_"
   class="st32"
   points="151.36,433.87 151.36,423.91 141.68,433.45 142.1,433.87 " />
	<polygon
   id="XMLID_381_"
   class="st32"
   points="165.1,410.58 174.64,420.26 174.64,400.9 " />
	<polygon
   id="XMLID_382_"
   class="st32"
   points="163.98,411.84 154.3,421.52 173.66,421.52 " />
	<polygon
   id="XMLID_383_"
   class="st18"
   points="358.26,398.94 358.26,433.87 393.19,433.87 " />
	<polygon
   id="XMLID_384_"
   class="st16"
   points="428.26,423.07 434.43,429.38 450.14,413.67 450.14,399.08 404.13,399.08 404.97,399.92 405.11,399.92 " />
	<polygon
   id="XMLID_385_"
   class="st33"
   points="218.69,236.22 200.87,236.22 174.5,236.22 222.47,284.2 222.47,236.22 " />
	<polygon
   id="XMLID_386_"
   class="st7"
   points="358.26,353.21 360.36,355.31 360.36,351.11 360.36,331.89 360.36,322.77 335.82,322.77 330.77,322.77 328.38,322.77 327.82,322.77 335.4,330.35 337.36,332.45 " />
	<polygon
   id="XMLID_387_"
   class="st4"
   points="58.35,422.22 46.71,433.87 70.14,433.87 " />
	<polygon
   id="XMLID_388_"
   class="st30"
   points="81.92,352.93 81.92,306.78 58.92,329.78 " />
	<polygon
   id="XMLID_389_"
   class="st33"
   points="151.36,375.93 127.93,399.22 151.36,422.65 174.64,399.22 " />
	<polygon
   id="XMLID_390_"
   class="st7"
   points="313.79,261.47 289.39,261.47 269.89,261.47 289.39,280.97 313.79,305.38 " />
	<polygon
   id="XMLID_391_"
   class="st3"
   points="163.56,319.68 153.88,329.22 173.24,329.22 " />
	<polygon
   id="XMLID_392_"
   class="st3"
   points="186.56,342.69 176.89,352.37 196.24,352.37 " />
	
		<linearGradient
   id="XMLID_4_"
   gradientUnits="userSpaceOnUse"
   x1="-518.19202"
   y1="-514.01123"
   x2="-516.14423"
   y2="-514.01123"
   gradientTransform="matrix(0,-106.9284,106.9284,0,55205.488,-54973.328)">
		<stop
   offset="0"
   style="stop-color:#4F4C4D"
   id="stop791" />
		<stop
   offset="1"
   style="stop-color:#231F20"
   id="stop793" />
	</linearGradient>
	<path
   id="XMLID_394_"
   class="st34"
   d="m 55.27,217.14 -21.46,21.6 v 189.23 c 0,4.49 3.65,8.14 8.14,8.14 h 388.98 l 21.46,-21.46 V 225.28 c 0,-4.49 -3.65,-8.14 -8.14,-8.14 z M 38.01,427.98 V 240.43 l 19.08,-19.08 h 387.16 c 2.1,0 3.93,1.68 3.93,3.93 V 412.83 L 429.1,431.9 H 41.94 c -2.24,0 -3.93,-1.68 -3.93,-3.92"
   style="fill:url(#XMLID_4_)" />
	<g
   id="g816">
		<path
   id="XMLID_400_"
   class="st35"
   d="m 82.48,116.15 -13.05,34.51 h 27.35 z m 51.9,67.47 h -23.85 l -7.29,-17.53 H 63.68 l -6.73,17.53 H 33.53 L 69.3,94.97 h 25.67 z" />
		<polygon
   id="XMLID_401_"
   class="st35"
   points="240.15,183.62 217.99,183.62 217.99,128.21 194,155.98 190.63,155.98 166.79,128.21 166.79,183.62 144.62,183.62 144.62,94.97 163.84,94.97 192.32,127.79 220.79,94.97 240.15,94.97 " />
		<path
   id="XMLID_404_"
   class="st35"
   d="m 279.15,167.35 h 14.45 c 22.3,0 28.9,-15.15 28.9,-28.05 0,-15.29 -8.14,-28.05 -29.18,-28.05 h -14.17 z m 16.97,-72.38 c 32.4,0 49.1,20.06 49.1,44.47 0,25.53 -16.13,44.19 -51.48,44.19 H 257.13 V 94.97 Z" />
		<polygon
   id="XMLID_405_"
   class="st35"
   points="361.35,87.95 462.76,87.95 462.76,189.51 434.99,161.6 434.99,115.87 389.12,115.87 " />
		<polygon
   id="XMLID_406_"
   class="st35"
   points="360.5,150.23 360.5,190.35 400.62,190.35 429.38,161.74 389.26,161.74 389.26,121.48 " />
		<path
   id="XMLID_409_"
   class="st35"
   d="m 66.49,277.32 h 39.84 c 10.1,0 12.91,5.05 12.91,12.76 v 2.38 c 0,5.75 -1.26,9.12 -7.29,10.52 v 0.14 c 3.93,0.7 7.15,2.38 7.15,9.4 V 326 h -13.19 v -11.36 c 0,-4.49 -1.26,-6.03 -5.33,-6.03 H 79.82 v 17.25 H 66.63 v -48.53 m 12.91,20.75 h 21.88 c 3.51,0 4.91,-1.4 4.91,-4.49 v -1.12 c 0,-3.79 -1.82,-4.49 -6.03,-4.49 H 79.68 v 10.1 z" />
		<path
   id="XMLID_412_"
   class="st35"
   d="m 191.75,277.32 h 34.51 c 13.05,0 17.81,4.35 17.81,14.87 v 18.94 c 0,10.66 -4.63,14.87 -17.81,14.87 h -34.51 v -48.68 m 13.19,37.6 h 18.1 c 5.61,0 7.86,-1.54 7.86,-7.72 v -11.64 c 0,-6.03 -2.1,-7.72 -7.86,-7.72 h -18.1 z" />
		<polygon
   id="XMLID_413_"
   class="st35"
   points="300.33,287.14 264.84,287.14 264.84,296.96 298.5,296.96 298.5,305.8 264.84,305.8 264.84,315.62 301.03,315.62 301.03,326 251.65,326 251.65,277.32 300.33,277.32 " />
		<polygon
   id="XMLID_414_"
   class="st35"
   points="406.51,313.09 406.65,313.37 406.65,277.32 419.7,277.32 419.7,326 399.36,326 380.28,288.96 380.28,290.65 380.28,326 367.1,326 367.1,277.32 387.44,277.32 " />
		<path
   id="XMLID_417_"
   class="st35"
   d="m 145.88,277.32 c -11.78,0 -18.66,2.95 -18.66,15.29 V 326 h 13.33 v -17.11 h 27.21 V 326 h 13.05 v -48.68 h -34.93 m 22.03,21.88 H 140.7 v -2.52 c 0,-5.33 1.26,-8.56 8.14,-8.56 h 9.96 9.26 v 11.08 z" />
		<path
   id="XMLID_420_"
   class="st35"
   d="m 341.01,277.32 h -33.1 v 33.53 c 0,12.34 6.87,15.15 18.52,15.15 h 14.59 c 11.64,0 18.52,-2.81 18.52,-15.15 v -18.24 c -0.02,-12.48 -6.89,-15.29 -18.53,-15.29 m 5.33,29.46 c 0,6.03 -1.4,8.42 -7.43,8.42 h -10.38 c -6.17,0 -7.43,-2.38 -7.43,-8.42 v -18.66 h 9.12 8 c 6.73,0 8.14,3.23 8.14,8.42 v 10.24 z" />
		<path
   id="XMLID_421_"
   class="st35"
   d="m 124.28,360.08 h 14.73 l 0.14,5.89 c 0,4.35 -0.84,7.01 -2.67,8.28 -1.82,1.26 -5.89,1.82 -12.2,1.82 -5.75,0 -9.68,-0.84 -11.5,-2.52 -1.82,-1.68 -2.81,-5.05 -2.81,-10.1 0,-6.45 0.42,-10.66 1.12,-12.34 0.98,-2.1 2.38,-3.51 4.21,-4.21 1.82,-0.7 5.05,-1.12 9.68,-1.12 5.89,0 9.82,0.56 11.5,1.68 1.68,1.12 2.67,3.65 2.67,7.43 h -6.45 c -0.14,-1.96 -0.56,-3.23 -1.4,-3.65 -0.84,-0.42 -2.95,-0.7 -6.31,-0.7 -3.65,0 -6.03,0.42 -7.01,1.26 -0.98,0.84 -1.4,2.67 -1.4,5.75 v 2.95 3.79 c 0,2.95 0.42,4.77 1.54,5.61 0.98,0.84 3.23,1.12 6.87,1.12 3.51,0 5.61,-0.28 6.59,-0.98 0.98,-0.7 1.4,-2.24 1.4,-4.77 v -1.26 h -8.42 v -3.93" />
		<path
   id="XMLID_424_"
   class="st35"
   d="m 148.69,375.79 v -29.6 h 16.55 c 4.07,0 6.87,0.56 8.56,1.82 1.54,1.26 2.38,3.51 2.38,6.87 0,2.95 -0.42,5.05 -1.12,6.17 -0.84,1.12 -2.38,1.82 -4.77,2.24 v 0.14 c 3.65,0.14 5.61,2.1 5.61,5.75 v 6.59 h -6.31 v -5.47 c 0,-3.09 -1.68,-4.63 -5.05,-4.63 H 155 v 9.96 l -6.31,0.16 M 155,361.07 h 9.12 c 2.24,0 3.65,-0.28 4.35,-0.98 0.7,-0.7 1.12,-2.1 1.12,-4.07 0,-2.1 -0.28,-3.51 -0.98,-4.07 -0.56,-0.56 -1.96,-0.84 -4.07,-0.84 H 155 Z" />
		<path
   id="XMLID_427_"
   class="st35"
   d="m 206.34,370.18 h -14.45 l -2.1,5.75 h -6.73 l 11.08,-29.6 h 9.54 l 11.36,29.6 h -6.59 l -2.11,-5.75 m -1.4,-4.21 -5.75,-15.43 -5.61,15.43 z" />
		<path
   id="XMLID_430_"
   class="st35"
   d="m 223.04,375.79 v -29.6 h 15.15 c 4.49,0 7.57,0.7 9.12,2.1 1.55,1.4 2.38,4.07 2.38,8.14 0,3.93 -0.7,6.59 -2.24,7.86 -1.54,1.26 -4.63,1.96 -9.12,1.96 h -1.4 -7.57 v 9.54 h -6.32 m 6.31,-14.3 h 7.29 c 2.95,0 4.63,-0.28 5.47,-0.84 0.84,-0.56 1.26,-1.96 1.26,-4.21 0,-2.52 -0.28,-4.07 -0.98,-4.63 -0.7,-0.56 -2.38,-0.84 -5.05,-0.84 h -8 v 10.52 z" />
		<polygon
   id="XMLID_431_"
   class="st35"
   points="280.83,375.79 280.83,363.03 265.12,363.03 265.12,375.79 258.81,375.79 258.81,346.2 265.12,346.2 265.12,358.26 280.83,358.26 280.83,346.2 287.28,346.2 287.28,375.79 " />
		<rect
   id="XMLID_432_"
   x="298.07999"
   y="346.20001"
   class="st35"
   width="6.3099999"
   height="29.6" />
		<path
   id="XMLID_433_"
   class="st35"
   d="m 336.1,365.27 h 6.31 v 0.98 c 0,4.21 -0.84,6.73 -2.52,8 -1.68,1.26 -5.47,1.82 -11.22,1.82 -6.59,0 -10.66,-0.98 -12.2,-2.81 -1.54,-1.96 -2.24,-7.01 -2.24,-15.29 0,-4.91 0.98,-8.14 3.09,-9.68 2.1,-1.54 6.31,-2.38 12.91,-2.38 4.77,0 8,0.7 9.54,1.96 1.54,1.26 2.38,3.79 2.38,7.57 v 0.7 h -6.31 v -0.7 c 0,-1.96 -0.42,-3.23 -1.26,-3.65 -0.84,-0.56 -2.67,-0.84 -5.75,-0.84 -3.93,0 -6.31,0.42 -7.15,1.26 -0.84,0.84 -1.12,3.37 -1.12,7.57 0,5.61 0.42,8.98 1.12,10.1 0.7,1.12 2.95,1.54 6.87,1.54 3.23,0 5.19,-0.28 6.17,-0.84 0.84,-0.56 1.4,-1.82 1.4,-3.79 v -1.52" />
		<path
   id="XMLID_434_"
   class="st35"
   d="m 376.5,354.75 h -6.17 c 0,-0.28 0,-0.42 0,-0.56 -0.14,-1.68 -0.56,-2.67 -1.26,-3.09 -0.7,-0.42 -2.24,-0.56 -4.91,-0.56 -2.95,0 -4.91,0.28 -5.89,0.7 -0.84,0.42 -1.4,1.54 -1.4,3.09 0,1.82 0.28,2.95 1.12,3.37 0.7,0.42 3.23,0.7 7.43,0.84 5.05,0.28 8.14,0.84 9.68,1.82 1.4,0.98 2.24,3.09 2.24,6.31 0,3.93 -0.84,6.45 -2.52,7.57 -1.68,1.12 -5.47,1.68 -11.36,1.68 -5.19,0 -8.7,-0.56 -10.52,-1.68 -1.82,-1.12 -2.67,-3.37 -2.67,-6.87 v -1.12 h 6.17 v 0.56 c 0,2.1 0.42,3.37 1.12,3.79 0.84,0.42 3.09,0.7 6.73,0.7 2.81,0 4.63,-0.28 5.47,-0.84 0.84,-0.56 1.12,-1.82 1.12,-3.65 0,-1.4 -0.28,-2.38 -0.84,-2.81 -0.56,-0.43 -1.96,-0.7 -3.93,-0.84 l -3.51,-0.14 c -5.33,-0.28 -8.7,-0.84 -10.24,-1.96 -1.4,-0.98 -2.24,-3.23 -2.24,-6.59 0,-3.51 0.84,-5.75 2.67,-6.87 1.82,-1.12 5.33,-1.68 10.66,-1.68 5.05,0 8.42,0.56 10.24,1.54 1.82,0.98 2.67,3.09 2.67,6.17 v 1.12" />
	</g>
</g>
</svg>