<svg xmlns="http://www.w3.org/2000/svg" width="850" height="350" viewBox="-32.12 -52.094 850 350" xmlns:v="https://vecta.io/nano"><path d="M66.497 69.841h-7.583V26.156c0-3.451.211-7.674.636-12.669h-.182c-.727 2.937-1.378 5.041-1.953 6.312L35.164 69.841H31.44L9.235 20.162c-.636-1.453-1.287-3.678-1.953-6.675h-.181c.242 2.604.363 6.857.363 12.76v43.594H.107V4.723h10.081l19.98 45.41c1.544 3.481 2.543 6.085 2.997 7.811h.272c1.301-3.572 2.346-6.236 3.133-7.992L56.961 4.723h9.536v65.118zm19.935-58.307c-1.333 0-2.468-.454-3.406-1.362s-1.408-2.059-1.408-3.451.469-2.55 1.408-3.474 2.073-1.385 3.406-1.385c1.362 0 2.521.462 3.474 1.385s1.431 2.082 1.431 3.474c0 1.333-.477 2.468-1.431 3.406s-2.112 1.407-3.474 1.407zm3.633 58.307h-7.447v-46.5h7.447v46.5zm46.772-2.134c-3.572 2.149-7.811 3.224-12.715 3.224-6.63 0-11.981-2.157-16.053-6.471s-6.107-9.907-6.107-16.779c0-7.659 2.195-13.812 6.584-18.459s10.247-6.971 17.574-6.971c4.087 0 7.689.757 10.808 2.271v7.629c-3.451-2.422-7.145-3.633-11.08-3.633-4.753 0-8.65 1.703-11.693 5.108s-4.563 7.879-4.563 13.419c0 5.449 1.431 9.748 4.291 12.896s6.698 4.723 11.512 4.723c4.057 0 7.871-1.347 11.443-4.042v7.085zm35.511-36.828c-1.302-.999-3.179-1.499-5.631-1.499-3.179 0-5.835 1.499-7.97 4.496s-3.201 7.084-3.201 12.261v23.704h-7.447v-46.5h7.447v9.582h.182c1.06-3.27 2.679-5.82 4.859-7.652s4.616-2.747 7.311-2.747c1.937 0 3.421.212 4.45.636v7.719zm26.293 40.052c-6.873 0-12.359-2.172-16.461-6.517s-6.153-10.104-6.153-17.278c0-7.811 2.134-13.911 6.403-18.3s10.036-6.584 17.301-6.584c6.932 0 12.344 2.134 16.234 6.403S221.8 38.843 221.8 46.41c0 7.417-2.097 13.358-6.29 17.823s-9.816 6.698-16.869 6.698zm.545-42.413c-4.784 0-8.567 1.627-11.353 4.882s-4.178 7.742-4.178 13.464c0 5.51 1.408 9.854 4.223 13.033s6.584 4.768 11.307 4.768c4.813 0 8.514-1.559 11.103-4.677s3.882-7.553 3.882-13.305c0-5.813-1.294-10.292-3.882-13.441s-6.289-4.724-11.102-4.724zm31.696 39.643v-7.992c4.057 2.997 8.521 4.496 13.396 4.496 6.539 0 9.809-2.18 9.809-6.539 0-1.241-.28-2.293-.84-3.156s-1.317-1.627-2.271-2.293-2.074-1.264-3.36-1.794l-4.155-1.657c-2.059-.817-3.868-1.642-5.427-2.475s-2.86-1.771-3.905-2.815-1.832-2.232-2.361-3.565-.794-2.891-.794-4.677c0-2.18.5-4.109 1.499-5.79s2.331-3.088 3.996-4.223 3.564-1.991 5.699-2.566 4.336-.863 6.607-.863c4.026 0 7.629.697 10.808 2.089v7.538c-3.421-2.24-7.356-3.36-11.807-3.36-1.393 0-2.649.159-3.769.477s-2.082.765-2.884 1.34-1.423 1.264-1.861 2.066-.659 1.688-.659 2.656c0 1.211.219 2.225.659 3.042s1.082 1.544 1.93 2.18 1.877 1.211 3.088 1.726 2.588 1.075 4.132 1.68c2.059.788 3.905 1.597 5.54 2.43s3.027 1.771 4.178 2.815 2.036 2.248 2.657 3.61.931 2.982.931 4.859c0 2.301-.507 4.299-1.521 5.994a13.02 13.02 0 0 1-4.064 4.223c-1.696 1.12-3.648 1.953-5.858 2.498s-4.526.817-6.948.817c-4.786-.001-8.933-.925-12.445-2.771zm61.713 2.77c-6.873 0-12.359-2.172-16.462-6.517s-6.153-10.104-6.153-17.278c0-7.811 2.135-13.911 6.403-18.3s10.036-6.584 17.302-6.584c6.932 0 12.344 2.134 16.233 6.403s5.835 10.188 5.835 17.755c0 7.417-2.096 13.358-6.289 17.823s-9.816 6.698-16.869 6.698zm.545-42.413c-4.784 0-8.568 1.627-11.354 4.882s-4.178 7.742-4.178 13.464c0 5.51 1.408 9.854 4.224 13.033s6.585 4.768 11.308 4.768c4.813 0 8.514-1.559 11.103-4.677s3.882-7.553 3.882-13.305c0-5.813-1.294-10.292-3.882-13.441s-6.29-4.724-11.103-4.724zm55.809-20.98c-1.453-.817-3.104-1.226-4.949-1.226-5.208 0-7.811 3.285-7.811 9.854v7.175h10.898v6.357h-10.898v40.143h-7.402V29.698h-7.947v-6.357h7.947v-7.538c0-4.874 1.408-8.726 4.223-11.557S339.336 0 343.544 0c2.271 0 4.072.272 5.404.817v6.721zm29.379 61.849c-1.756.969-4.071 1.453-6.947 1.453-8.144 0-12.215-4.541-12.215-13.623V29.698h-7.992v-6.357h7.992V11.988l7.447-2.407V23.34h11.715v6.357h-11.715V55.9c0 3.118.529 5.343 1.589 6.675s2.815 1.998 5.268 1.998c1.877 0 3.497-.515 4.858-1.544v6.358zM0 264.242V86.393h49.113c62.672 0 94.01 28.897 94.01 86.693 0 27.451-8.703 49.506-26.107 66.166s-40.701 24.99-69.887 24.99H0zm20.836-158.997v140.146h26.541c23.316 0 41.464-6.242 54.446-18.727s19.472-30.18 19.472-53.082c0-45.558-24.227-68.337-72.678-68.337H20.836zm164.951-.248c-3.639 0-6.74-1.24-9.302-3.721s-3.845-5.622-3.845-9.426 1.281-6.965 3.845-9.488 5.663-3.783 9.302-3.783c3.721 0 6.883 1.262 9.488 3.783s3.907 5.686 3.907 9.488c0 3.639-1.302 6.74-3.907 9.302s-5.767 3.845-9.488 3.845zm9.922 159.245h-20.34v-127h20.34v127zM303.113 157.83c-3.556-2.729-8.682-4.092-15.379-4.092-8.682 0-15.938 4.092-21.766 12.277s-8.744 19.348-8.744 33.486v64.74h-20.34v-127h20.34v26.17h.496c2.894-8.93 7.317-15.895 13.271-20.898s12.607-7.504 19.968-7.504c5.29 0 9.343.58 12.154 1.736v21.085zm120.799 47.998h-89.668c.329 14.139 4.134 25.053 11.41 32.742s17.28 11.533 30.014 11.533c14.304 0 27.45-4.713 39.44-14.139v19.1c-11.162 8.105-25.921 12.154-44.277 12.154-17.942 0-32.041-5.766-42.292-17.301s-15.379-27.76-15.379-48.68c0-19.76 5.601-35.861 16.806-48.307s25.114-18.666 41.733-18.666 29.475 5.376 38.571 16.123 13.643 25.674 13.643 44.773v10.668zm-20.836-17.24c-.082-11.738-2.914-20.877-8.496-27.408s-13.332-9.799-23.253-9.799c-9.593 0-17.735 3.432-24.433 10.295s-10.833 15.834-12.402 26.912h68.584zm138.162 69.826c-9.756 5.869-21.332 8.805-34.727 8.805-18.107 0-32.723-5.891-43.842-17.672s-16.682-27.057-16.682-45.828c0-20.916 5.994-37.723 17.984-50.414s27.986-19.039 47.996-19.039c11.162 0 21.002 2.068 29.518 6.201v20.836c-9.426-6.613-19.514-9.922-30.262-9.922-12.98 0-23.627 4.652-31.936 13.953s-12.465 21.518-12.465 36.648c0 14.883 3.906 26.625 11.721 35.223s18.293 12.898 31.439 12.898c11.08 0 21.498-3.678 31.254-11.037v19.348zm89.67 4.588c-4.797 2.646-11.121 3.969-18.977 3.969-22.242 0-33.361-12.402-33.361-37.207v-75.158h-21.828v-17.363h21.828v-31.005l20.34-6.573v37.579h31.998v17.363H598.91v71.563c0 8.516 1.445 14.594 4.34 18.23s7.689 5.457 14.387 5.457c5.127 0 9.551-1.404 13.271-4.217v17.362zm152.672 1.24h-25.424l-40.928-68.088c-1.24-2.066-2.605-5.002-4.094-8.807h-.496l-4.217 8.807-42.168 68.088h-25.549l59.531-89.42-54.818-88.429h25.549l36.34 62.507c2.396 4.137 4.506 8.27 6.324 12.402h.496c2.646-5.457 4.961-9.754 6.945-12.898L758.9 86.393h23.936l-55.934 88.181 56.678 89.668zM395.046 34.787c-3.442 0-6.377-1.214-8.807-3.644s-3.644-5.365-3.644-8.807 1.214-6.377 3.644-8.807 5.365-3.644 8.807-3.644c3.432 0 6.361 1.215 8.791 3.644s3.645 5.365 3.645 8.807-1.215 6.378-3.645 8.807-5.359 3.644-8.791 3.644zm0-23.441c-3.032 0-5.622 1.074-7.769 3.221s-3.221 4.737-3.221 7.77 1.073 5.62 3.221 7.761a10.6 10.6 0 0 0 7.769 3.212c3.032 0 5.62-1.071 7.762-3.212s3.213-4.729 3.213-7.761-1.071-5.622-3.213-7.77-4.728-3.221-7.762-3.221zm6.043 18.776H398.4l-1.727-3.802c-.874-1.903-1.814-2.855-2.822-2.855h-1.461v6.657h-2.208V14.284h4.45c1.848 0 3.272.388 4.274 1.162s1.503 1.826 1.503 3.154c0 1.085-.352 2.009-1.055 2.772s-1.686 1.278-2.947 1.544v.066c.875.188 1.744 1.162 2.607 2.922l2.075 4.218zm-8.698-13.945v5.412h2.375c2.18 0 3.27-.907 3.27-2.723 0-.974-.293-1.666-.879-2.075s-1.518-.614-2.789-.614h-1.977zm404.682 96.508c-3.442 0-6.378-1.214-8.808-3.644s-3.644-5.365-3.644-8.807 1.214-6.377 3.644-8.807 5.365-3.644 8.808-3.644c3.431 0 6.36 1.215 8.79 3.644s3.645 5.365 3.645 8.807-1.215 6.378-3.645 8.807-5.36 3.644-8.79 3.644zm0-23.441c-3.032 0-5.622 1.074-7.77 3.221s-3.221 4.737-3.221 7.77 1.073 5.62 3.221 7.761 4.737 3.212 7.77 3.212 5.62-1.071 7.761-3.212 3.213-4.729 3.213-7.761-1.07-5.622-3.213-7.77-4.729-3.221-7.761-3.221zm6.043 18.776h-2.689l-1.727-3.802c-.874-1.903-1.815-2.855-2.822-2.855h-1.461v6.657h-2.208V92.182h4.449c1.848 0 3.273.388 4.275 1.162s1.502 1.826 1.502 3.154c0 1.085-.352 2.009-1.055 2.772s-1.685 1.278-2.946 1.544v.066c.874.188 1.743 1.162 2.606 2.922l2.076 4.218zm-8.699-13.945v5.412h2.374c2.18 0 3.271-.907 3.271-2.723 0-.974-.294-1.666-.88-2.075s-1.517-.614-2.789-.614h-1.976z"/></svg>