<svg width="90" height="81" viewBox="0 0 90 81" fill="none" xmlns="http://www.w3.org/2000/svg">
<g clip-path="url(#clip0_227_1050)">
<path d="M7.04491 68.9835L10.989 75.7957C11.8086 77.2301 12.9866 78.3571 14.3696 79.1767C18.3312 74.1482 21.0882 70.2893 22.6421 67.6004C24.2187 64.8717 26.1565 60.603 28.4556 54.7952C22.2596 53.9795 17.5644 53.5718 14.37 53.5718C11.3038 53.5718 6.60858 53.9795 0.283691 54.7952C0.283691 56.383 0.693473 57.9707 1.51304 59.4051L7.04491 68.9835Z" fill="#0066DA"/>
<path d="M75.6308 79.1767C77.0142 78.3571 78.1922 77.2301 79.0114 75.7961L80.6505 72.9789L88.4877 59.4051C89.2921 58.0018 89.7158 56.4127 89.7167 54.7952C83.3551 53.9795 78.6687 53.5718 75.6566 53.5718C72.4196 53.5718 67.7328 53.9795 61.5962 54.7952C63.868 60.6348 65.7803 64.9035 67.3331 67.6004C68.8992 70.3215 71.665 74.18 75.6308 79.1767Z" fill="#EA4335"/>
<path d="M45.0002 26.1108C49.5837 20.5755 52.7424 16.3068 54.4762 13.3056C55.8726 10.8888 57.4093 7.02996 59.0862 1.72934C57.7031 0.909782 56.1154 0.5 54.4762 0.5H35.5243C33.8851 0.5 32.2977 0.961135 30.9143 1.72934C33.0474 7.80865 34.8577 12.1353 36.3445 14.7089C37.9878 17.5533 40.8731 21.3538 45.0002 26.1108Z" fill="#00832D"/>
<path d="M61.545 54.7952H28.4557L14.3701 79.1767C15.7528 79.9962 17.3406 80.406 18.9797 80.406H71.0209C72.6601 80.406 74.2482 79.9449 75.6309 79.1763L61.545 54.7952Z" fill="#2684FC"/>
<path d="M45.0002 26.1108L30.9146 1.72969C29.5312 2.54925 28.3532 3.67589 27.5336 5.1103L1.51304 50.1852C0.708539 51.5885 0.284754 53.1777 0.283691 54.7952H28.4556L45.0002 26.1108Z" fill="#00AC47"/>
<path d="M75.4776 27.6476L62.4669 5.10995C61.6477 3.67554 60.4694 2.5489 59.0863 1.72934L45.0007 26.1108L61.545 54.7952H89.6659C89.6659 53.2071 89.2561 51.6196 88.4365 50.1852L75.4776 27.6476Z" fill="#FFBA00"/>
</g>
<defs>
<clipPath id="clip0_227_1050">
<rect width="89.6" height="80" fill="white" transform="translate(0.199951 0.5)"/>
</clipPath>
</defs>
</svg>
