<?xml version="1.0" encoding="UTF-8" standalone="no"?>
<svg
   xmlns:dc="http://purl.org/dc/elements/1.1/"
   xmlns:cc="http://creativecommons.org/ns#"
   xmlns:rdf="http://www.w3.org/1999/02/22-rdf-syntax-ns#"
   xmlns:svg="http://www.w3.org/2000/svg"
   xmlns="http://www.w3.org/2000/svg"
   width="233.96729mm"
   height="301.36041mm"
   viewBox="0 0 233.96729 301.36041"
   version="1.1"
   id="svg8">
  <defs
     id="defs2" />
  <metadata
     id="metadata5">
    <rdf:RDF>
      <cc:Work
         rdf:about="">
        <dc:format>image/svg+xml</dc:format>
        <dc:type
           rdf:resource="http://purl.org/dc/dcmitype/StillImage" />
        <dc:title></dc:title>
      </cc:Work>
    </rdf:RDF>
  </metadata>
  <g
     id="layer1"
     transform="translate(-58.39732,23.302233)">
    <rect
       style="fill:#017dc7;fill-opacity:1;stroke-width:1.37222;stroke-linejoin:round;paint-order:stroke fill markers"
       id="rect973"
       width="233.96729"
       height="301.36041"
       x="58.39732"
       y="-23.302233" />
    <rect
       style="fill:#ffffff;stroke-width:0.458794;stroke-linejoin:round;paint-order:stroke fill markers"
       id="rect971"
       width="210.44347"
       height="145.76408"
       x="71.667068"
       y="117.79504"
       ry="18.174328" />
    <g
       id="g898"
       style="fill:#017dc7;fill-opacity:1">
      <path
         id="path4423"
         d="m 146.81318,186.70768 v 23.06405 h -7.26508 v -28.99044 l 14.99882,0.015 c 6.3706,0 8.54077,4.54001 8.54077,8.66382 v 20.3116 h -7.25196 v -20.2736 c 0,-1.72746 -0.88486,-2.79045 -3.01918,-2.79045 h -6.00337 z m 49.40148,-0.34638 c -2.48319,0 -4.40503,1.29008 -5.2077,3.0414 -0.47566,1.0515 -0.63916,1.85735 -0.69512,3.14477 h 11.17698 c -0.1434,-3.14477 -1.55462,-6.18617 -5.27416,-6.18617 m -5.90282,11.183 c 0,3.75536 2.31007,6.5193 6.43444,6.5193 3.2089,0 4.80374,-0.89864 6.65914,-2.76394 l 4.48723,4.32969 c -2.87315,2.86645 -5.88796,4.60716 -11.19971,4.60716 -6.95468,0 -13.61033,-3.83222 -13.61033,-15.00109 0,-9.54301 5.81102,-14.94541 13.44682,-14.94541 7.73986,0 12.21135,6.32489 12.21135,14.60964 v 2.64465 h -18.42894 m -13.36201,12.1912 c -5.91856,0 -8.42973,-4.16358 -8.42973,-8.27591 v -28.57691 h 7.25372 v 7.89861 h 5.46826 v 5.92639 h -5.46826 v 14.29243 c 0,1.68417 0.78692,2.61903 2.51729,2.61903 h 2.95097 v 6.11636 h -4.29225 m -43.86589,-32.96051 h -7.31492 v -7.02206 h 7.31492 z m 0.0184,33.30159 c -5.47788,-0.53194 -7.34115,-3.88966 -7.34115,-7.7643 l 0.008,-21.53099 h 7.33328 v 29.29529 z m 87.18356,-0.61942 c -5.46651,-0.53281 -7.32103,-3.88524 -7.32103,-7.75458 v -32.94902 h 7.32103 z m 25.59347,-35.94181 C 239.2447,140.8261 176.4541,138.75669 135.98161,163.656 v 2.74892 c 40.4314,-20.99816 97.77297,-20.87446 102.99729,9.23375 1.74785,9.95566 -3.80348,20.33546 -13.71788,26.3016 v 7.80584 c 11.9333,-4.41188 24.17176,-18.71845 20.61835,-36.23076 m -73.56975,57.19357 c -27.93238,2.60931 -57.03991,-1.488 -61.11269,-23.54561 -1.99355,-10.87374 2.90813,-22.40046 9.41077,-29.56037 v -3.82869 c -11.70597,10.37361 -18.05909,23.50674 -14.40163,39.02474 4.66822,19.89894 29.64963,31.1756 67.77971,27.43085 15.08625,-1.488 34.83198,-6.39028 48.55947,-14.00437 V 215.4083 c -12.45617,7.49567 -33.06839,13.69421 -50.23563,15.30062"
         style="fill:#017dc7;fill-opacity:1;stroke-width:0.476766" />
      <path
         id="path4425"
         d="m 228.74856,170.94147 c 0,-0.35875 -0.20723,-0.47273 -0.68113,-0.47273 h -0.45729 v 1.01527 c 0.0665,0 0.39871,0.0124 0.45729,0.0124 0.4739,0 0.68113,-0.15993 0.68113,-0.4957 v -0.0592 z m 0.71348,2.51741 h -0.5421 c -0.049,0 -0.0918,-0.031 -0.1128,-0.0725 l -0.73971,-1.2671 c -0.0131,-0.0256 -0.0769,-0.0566 -0.1023,-0.0566 h -0.33226 v 1.2565 c 0,0.0672 -0.0455,0.13961 -0.1329,0.13961 h -0.49052 c -0.0612,0 -0.12241,-0.0725 -0.12241,-0.13961 v -3.17835 c 0,-0.18379 0.0708,-0.26067 0.22472,-0.28452 0.17312,-0.023 0.64352,-0.0389 0.89709,-0.0389 0.90059,0 1.44532,0.26861 1.44532,1.12395 v 0.0592 c 0,0.52928 -0.26056,0.8085 -0.66452,0.94546 l 0.76682,1.3104 c 0.005,0.0265 0.0227,0.0628 0.0227,0.0937 0,0.0513 -0.0306,0.10869 -0.11717,0.10869 m -1.28705,-4.21483 c -1.33428,0 -2.41325,1.11335 -2.41325,2.45379 0,1.3422 1.07897,2.43788 2.41325,2.43788 1.32728,0 2.41673,-1.09568 2.41673,-2.43788 0,-1.34044 -1.08945,-2.45379 -2.41673,-2.45379 m 0,5.3971 c -1.62107,0 -2.91426,-1.32188 -2.91426,-2.94331 0,-1.61878 1.29319,-2.9442 2.91426,-2.9442 1.60358,0 2.92124,1.32542 2.92124,2.9442 0,1.62143 -1.31766,2.94331 -2.92124,2.94331"
         style="fill:#017dc7;fill-opacity:1;stroke-width:0.476766" />
    </g>
    <text
       xml:space="preserve"
       style="font-style:normal;font-variant:normal;font-weight:normal;font-stretch:normal;font-size:50.8px;line-height:1.25;font-family:'Helvetica Neue';-inkscape-font-specification:'Helvetica Neue';letter-spacing:0px;word-spacing:0px;stroke-width:0.264583"
       x="-144.86008"
       y="-4.2763124"
       id="text859"><tspan
         id="tspan857"
         x="-144.86008"
         y="-4.2763124"
         style="font-style:normal;font-variant:normal;font-weight:normal;font-stretch:normal;font-family:'Helvetica Neue';-inkscape-font-specification:'Helvetica Neue';stroke-width:0.264583" /></text>
    <g
       id="g969">
      <g
         aria-label="Intel"
         transform="scale(0.98188315,1.0184511)"
         id="text863"
         style="font-size:84.4854px;line-height:1.25;font-family:'Helvetica Neue';-inkscape-font-specification:'Helvetica Neue';letter-spacing:0px;word-spacing:0px;fill:#ffffff;stroke-width:0.440028">
        <g
           id="g881">
          <path
             d="M 89.040979,56.199844 H 102.30519 V -4.1227293 H 89.040979 Z"
             style="font-style:normal;font-variant:normal;font-weight:normal;font-stretch:normal;font-family:'Helvetica Neue LT Std';-inkscape-font-specification:'Helvetica Neue LT Std';fill:#ffffff;stroke-width:0.440028"
             id="path865" />
          <path
             d="m 112.69673,56.199844 h 11.99693 V 33.304302 c 0,-8.870967 2.78802,-12.503839 9.29339,-12.503839 5.57604,0 7.68818,3.548387 7.68818,10.729645 v 24.669736 h 11.99692 V 29.333488 c 0,-10.814131 -3.21044,-17.99539 -15.96774,-17.99539 -5.06912,0 -10.30722,2.365591 -13.34869,7.265745 h -0.25346 v -6.082949 h -11.40553 z"
             style="font-style:normal;font-variant:normal;font-weight:normal;font-stretch:normal;font-family:'Helvetica Neue LT Std';-inkscape-font-specification:'Helvetica Neue LT Std';fill:#ffffff;stroke-width:0.440028"
             id="path867" />
          <path
             d="M 178.00382,-0.57434265 H 166.00689 V 12.520894 h -7.26574 v 8.026113 h 7.26574 v 25.768046 c 0,8.701996 6.42089,10.391704 13.77112,10.391704 2.3656,0 4.98464,-0.08449 7.01229,-0.422427 v -9.377879 c -1.26728,0.253456 -2.45007,0.337941 -3.71736,0.337941 -4.05529,0 -5.06912,-1.013825 -5.06912,-5.069124 V 20.547007 h 8.78648 v -8.026113 h -8.78648 z"
             style="font-style:normal;font-variant:normal;font-weight:normal;font-stretch:normal;font-family:'Helvetica Neue LT Std';-inkscape-font-specification:'Helvetica Neue LT Std';fill:#ffffff;stroke-width:0.440028"
             id="path869" />
          <path
             d="m 233.93309,37.275115 c 0.84486,-13.433178 -6.3364,-25.937017 -21.20583,-25.937017 -13.26421,0 -22.30415,9.969277 -22.30415,23.064514 0,13.517663 8.53303,22.980028 22.30415,22.980028 9.88479,0 17.06605,-4.393241 20.44547,-14.700459 h -10.56068 c -0.76037,2.703533 -4.6467,5.660521 -9.46236,5.660521 -6.67435,0 -10.39171,-3.463901 -10.72965,-11.067587 z M 202.42004,29.67143 c 0.16897,-3.379416 2.36559,-9.293394 9.96928,-9.293394 5.82949,0 8.44854,3.210445 9.54685,9.293394 z"
             style="font-style:normal;font-variant:normal;font-weight:normal;font-stretch:normal;font-family:'Helvetica Neue LT Std';-inkscape-font-specification:'Helvetica Neue LT Std';fill:#ffffff;stroke-width:0.440028"
             id="path871" />
          <path
             d="m 241.36776,56.199844 h 11.99693 V -4.1227293 h -11.99693 z"
             style="font-style:normal;font-variant:normal;font-weight:normal;font-stretch:normal;font-family:'Helvetica Neue LT Std';-inkscape-font-specification:'Helvetica Neue LT Std';fill:#ffffff;stroke-width:0.440028"
             id="path873" />
        </g>
      </g>
      <path
         id="path4425-9"
         d="m 263.96882,2.8251098 c 0,-0.9450396 -0.54891,-1.2452922 -1.80419,-1.2452922 h -1.21128 v 2.6744819 c 0.17615,0 1.05611,0.032665 1.21128,0.032665 1.25528,0 1.80419,-0.4212966 1.80419,-1.305801 V 2.8252152 Z m 1.88989,6.6315044 h -1.43593 c -0.1298,0 -0.24317,-0.081666 -0.29879,-0.1909837 l -1.95936,-3.3378667 c -0.0347,-0.067437 -0.20369,-0.1490989 -0.27098,-0.1490989 h -0.88009 v 3.3099433 c 0,0.1770223 -0.12052,0.3677686 -0.35203,0.3677686 h -1.2993 c -0.16211,0 -0.32424,-0.1909837 -0.32424,-0.3677686 V 0.71601853 c 0,-0.48415007 0.18753,-0.68667173 0.59524,-0.74949876 0.45856,-0.0605879 1.70457,-0.10247258 2.37623,-0.10247258 2.3855,0 3.8284,0.70758774 3.8284,2.96077291 v 0.155948 c 0,1.3942594 -0.69018,2.1297966 -1.76019,2.4905844 l 2.03116,3.45193 c 0.0133,0.069812 0.0601,0.1654317 0.0601,0.2468294 0,0.1351381 -0.0811,0.2863174 -0.31037,0.2863174 m -3.40916,-11.102944 c -3.53427,0 -6.39227,2.9328497 -6.39227,6.463913 0,3.5356993 2.858,6.4220017 6.39227,6.4220017 3.51573,0 6.40149,-2.8863024 6.40149,-6.4220017 0,-3.5310633 -2.88576,-6.463913 -6.40149,-6.463913 m 0,14.2173467 c -4.29393,0 -7.71936,-3.4821712 -7.71936,-7.7534337 0,-4.26428227 3.42543,-7.7557788 7.71936,-7.7557788 4.24759,0 7.73784,3.49149653 7.73784,7.7557788 0,4.2712625 -3.49025,7.7534337 -7.73784,7.7534337"
         style="fill:#ffffff;stroke-width:1.25939" />
      <g
         id="g950">
        <path
           d="m 102.24374,101.283 h 3.67087 V 87.466969 H 94.90199 v 4.187761 h 5.79998 c -0.33038,3.543491 -2.496193,5.512096 -6.240486,5.512096 -5.175934,0 -7.121497,-4.295139 -7.121497,-8.554486 0,-4.474105 1.945563,-8.769244 7.121497,-8.769244 2.716448,0 4.882264,1.467505 5.543026,4.295139 h 5.50631 c -0.62405,-5.798438 -5.689858,-9.019793 -11.049336,-9.019793 -8.112633,0 -12.884771,5.905817 -12.884771,13.493898 0,7.373323 4.772138,13.27914 12.884771,13.27914 2.532904,0 5.175935,-0.96641 7.194916,-3.507697 z"
           style="font-size:36.2479px;line-height:1.25;font-family:'Helvetica Neue LT Std';-inkscape-font-specification:'Helvetica Neue LT Std';letter-spacing:0px;word-spacing:0px;fill:#ffffff;stroke-width:0.188791"
           id="path917" />
        <path
           d="m 110.57658,101.283 h 5.76327 v -9.986198 h 5.76328 c 2.89999,0 3.96455,1.181164 4.36834,3.865626 0.29368,2.040191 0.22025,4.509901 0.91772,6.120572 h 5.76327 c -1.02784,-1.431707 -0.99113,-4.438309 -1.10126,-6.048986 -0.18354,-2.577084 -0.99113,-5.261547 -3.81771,-5.977403 v -0.07159 c 2.9,-1.145371 4.1481,-3.400319 4.1481,-6.406917 0,-3.865626 -2.97341,-7.051188 -7.67214,-7.051188 h -14.13287 z m 5.76327,-21.189354 h 6.31391 c 2.56962,0 3.96455,1.073785 3.96455,3.54349 0,2.577083 -1.39493,3.650868 -3.96455,3.650868 h -6.31391 z"
           style="font-size:36.2479px;line-height:1.25;font-family:'Helvetica Neue LT Std';-inkscape-font-specification:'Helvetica Neue LT Std';letter-spacing:0px;word-spacing:0px;fill:#ffffff;stroke-width:0.188791"
           id="path919" />
        <path
           d="m 134.29037,101.283 h 5.8367 l 2.05568,-5.691058 h 9.80124 l 1.98227,5.691058 h 5.98353 l -9.80124,-25.55608 h -5.91011 z m 12.81136,-19.256542 h 0.0734 l 3.30379,9.377723 h -6.79112 z"
           style="font-size:36.2479px;line-height:1.25;font-family:'Helvetica Neue LT Std';-inkscape-font-specification:'Helvetica Neue LT Std';letter-spacing:0px;word-spacing:0px;fill:#ffffff;stroke-width:0.188791"
           id="path921" />
        <path
           d="m 162.22571,101.283 h 5.76327 v -9.162962 h 6.05694 c 6.53416,0 9.06706,-4.044591 9.06706,-8.196559 0,-4.151969 -2.5329,-8.196559 -9.06706,-8.196559 h -11.82021 z m 5.76327,-21.189354 h 4.47847 c 2.67974,0 5.0658,0.572684 5.0658,3.829833 0,3.257148 -2.38606,3.829833 -5.0658,3.829833 h -4.47847 z"
           style="font-size:36.2479px;line-height:1.25;font-family:'Helvetica Neue LT Std';-inkscape-font-specification:'Helvetica Neue LT Std';letter-spacing:0px;word-spacing:0px;fill:#ffffff;stroke-width:0.188791"
           id="path923" />
        <path
           d="m 186.71044,101.283 h 5.76327 V 90.25881 h 10.60884 V 101.283 h 5.76327 V 75.72692 h -5.76327 v 9.807236 H 192.47371 V 75.72692 h -5.76327 z"
           style="font-size:36.2479px;line-height:1.25;font-family:'Helvetica Neue LT Std';-inkscape-font-specification:'Helvetica Neue LT Std';letter-spacing:0px;word-spacing:0px;fill:#ffffff;stroke-width:0.188791"
           id="path925" />
        <path
           d="m 213.91161,101.283 h 5.76327 V 75.72692 h -5.76327 z"
           style="font-size:36.2479px;line-height:1.25;font-family:'Helvetica Neue LT Std';-inkscape-font-specification:'Helvetica Neue LT Std';letter-spacing:0px;word-spacing:0px;fill:#ffffff;stroke-width:0.188791"
           id="path927" />
        <path
           d="m 247.7937,84.3172 c -0.69746,-5.905817 -5.54302,-9.198758 -11.30629,-9.198758 -8.11264,0 -12.88477,5.905817 -12.88477,13.493898 0,7.373323 4.77213,13.27914 12.88477,13.27914 6.42403,0 10.9392,-4.080383 11.52655,-10.451506 h -5.57973 c -0.44051,3.364526 -2.42278,5.726852 -5.94682,5.726852 -5.17594,0 -7.12149,-4.295139 -7.12149,-8.554486 0,-4.474105 1.94555,-8.769244 7.12149,-8.769244 2.86328,0 5.35947,1.932812 5.72656,4.474104 z"
           style="font-size:36.2479px;line-height:1.25;font-family:'Helvetica Neue LT Std';-inkscape-font-specification:'Helvetica Neue LT Std';letter-spacing:0px;word-spacing:0px;fill:#ffffff;stroke-width:0.188791"
           id="path929" />
        <path
           d="m 250.28987,92.800101 c -0.0734,6.299539 5.35948,9.091379 11.15946,9.091379 7.12149,0 10.9025,-3.507697 10.9025,-8.196558 0,-5.798439 -5.8734,-6.979603 -7.78226,-7.44491 -6.57086,-1.64647 -7.81896,-1.897019 -7.81896,-3.865626 0,-2.147569 2.12911,-2.899218 3.96454,-2.899218 2.75316,0 4.9924,0.787441 5.17594,3.865626 h 5.57973 c 0,-5.905819 -5.0291,-8.232352 -10.4987,-8.232352 -4.73543,0 -9.80124,2.505498 -9.80124,7.731251 0,4.79624 3.92783,6.263746 7.81896,7.265945 3.85442,1.0022 7.78226,1.467507 7.78226,4.223554 0,2.612878 -3.08354,3.185563 -5.10252,3.185563 -3.08354,0 -5.79998,-1.324335 -5.79998,-4.724654 z"
           style="font-size:36.2479px;line-height:1.25;font-family:'Helvetica Neue LT Std';-inkscape-font-specification:'Helvetica Neue LT Std';letter-spacing:0px;word-spacing:0px;fill:#ffffff;stroke-width:0.188791"
           id="path931" />
      </g>
    </g>
  </g>
</svg>
