<svg width="90" height="89" viewBox="0 0 90 89" fill="none" xmlns="http://www.w3.org/2000/svg">
<g clip-path="url(#clip0_45_936)">
<path fill-rule="evenodd" clip-rule="evenodd" d="M45 89C20.436 89 0.5 69.064 0.5 44.5C0.5 19.936 20.436 0 45 0C69.564 0 89.5 19.936 89.5 44.5C89.5 69.064 69.564 89 45 89Z" fill="#DD1405"/>
<path fill-rule="evenodd" clip-rule="evenodd" d="M67.25 58.0465C67.25 58.7697 66.6659 59.3322 65.9428 59.3322H60.3247C59.6016 59.3322 59.0175 58.7697 59.0175 58.0465V41.2541C59.0175 41.0931 58.8228 41.0397 58.7394 41.1202L46.8634 52.6902C45.8344 53.7078 44.1656 53.7078 43.1366 52.6902L31.2606 41.1202C31.1772 41.0397 30.9825 41.0931 30.9825 41.2541V58.0465C30.9825 58.7697 30.3984 59.3322 29.6753 59.3322H24.0572C23.3341 59.3322 22.75 58.7697 22.75 58.0465V28.4788C22.75 27.7556 23.3341 27.1932 24.0572 27.1932H27.9231C28.6184 27.1932 29.2859 27.4611 29.7866 27.9431L44.5272 42.3254C44.7775 42.5665 45.2225 42.5665 45.4728 42.3254L60.2134 27.9431C60.7141 27.4611 61.3816 27.1932 62.0769 27.1932H65.9428C66.6659 27.1932 67.25 27.7556 67.25 28.4788V58.0465Z" fill="white"/>
</g>
<defs>
<clipPath id="clip0_45_936">
<rect width="89" height="89" fill="white" transform="translate(0.5)"/>
</clipPath>
</defs>
</svg>
