<svg version="1.1" id="Layer_1" xmlns="http://www.w3.org/2000/svg" xmlns:xlink="http://www.w3.org/1999/xlink" x="0px" y="0px"
	 width="100%" viewBox="0 0 512 512" enable-background="new 0 0 512 512" xml:space="preserve">
<path fill="#68217A" opacity="1.000000" stroke="none" 
	d="
M282.000000,513.000000 
	C188.022812,513.000000 94.545624,513.000000 1.034216,513.000000 
	C1.034216,342.397797 1.034216,171.795563 1.034216,1.096670 
	C171.560532,1.096670 342.121155,1.096670 512.840881,1.096670 
	C512.840881,171.666550 512.840881,342.333252 512.840881,513.000000 
	C436.128876,513.000000 359.314423,513.000000 282.000000,513.000000 
M360.040955,358.506622 
	C363.749664,357.021545 367.381592,355.284576 371.189331,354.124481 
	C374.766724,353.034637 375.972260,351.195587 375.963776,347.352905 
	C375.831177,287.385284 375.841156,227.417236 375.947205,167.449509 
	C375.953400,163.937515 374.997070,162.192444 371.593842,160.879333 
	C354.666656,154.348083 337.802185,147.644196 321.048798,140.680710 
	C317.524994,139.216019 315.543915,139.700500 312.924377,142.339539 
	C284.290833,171.185791 255.524002,199.899719 226.787048,228.643280 
	C225.414688,230.015961 223.983246,231.329529 222.496368,232.749863 
	C219.660202,230.560196 217.155396,228.638916 214.663757,226.700684 
	C198.493866,214.122238 182.368683,201.485321 166.088974,189.050674 
	C164.591995,187.907257 161.711594,187.099030 160.163452,187.757416 
	C153.895050,190.423172 147.812912,193.574051 141.861755,196.902954 
	C140.505493,197.661606 139.143845,199.841919 139.137680,201.373352 
	C138.987350,238.686111 138.981644,275.999817 139.149765,313.312408 
	C139.157166,314.953888 140.668457,317.268890 142.140625,318.103455 
	C147.926376,321.383362 153.906052,324.355255 159.982498,327.062775 
	C161.392456,327.691010 163.891525,327.430786 165.162491,326.541016 
	C170.204147,323.011353 174.953873,319.065277 179.818604,315.282318 
	C193.999588,304.254822 208.183868,293.231567 223.347260,281.444489 
	C224.621078,283.183197 225.620926,284.989868 227.022568,286.395996 
	C255.599152,315.064148 284.272491,343.636230 312.756226,372.396088 
	C315.594086,375.261414 317.750824,375.587708 321.336670,374.082275 
	C333.920685,368.799042 346.658234,363.881592 360.040955,358.506622 
M175.775101,388.202759 
	C169.964355,385.897614 168.378372,380.991577 167.962921,375.410706 
	C166.747437,359.083191 174.383240,353.027802 189.615936,358.230560 
	C190.937073,354.763550 189.386505,353.063232 186.148682,351.965637 
	C176.753403,348.780884 167.103165,352.966095 163.871811,362.342804 
	C162.552292,366.171783 162.083984,370.459808 162.067566,374.542389 
	C162.008286,389.287567 171.932175,396.761017 186.229279,393.251526 
	C189.773788,392.381439 190.993958,390.854034 189.889526,388.513428 
	C185.013794,388.513428 180.763306,388.513428 175.775101,388.202759 
M214.463379,369.518341 
	C214.463379,366.428619 214.463379,363.338898 214.463379,359.973328 
	C212.378952,360.081543 210.962402,360.155090 209.031555,360.255310 
	C209.031555,364.587677 209.031555,368.648193 209.031555,373.065552 
	C204.746933,373.065552 200.988785,373.065552 197.089844,373.065552 
	C197.089844,374.847046 197.089844,376.233795 197.089844,378.169861 
	C201.219513,378.169861 205.107849,378.169861 209.312180,378.169861 
	C209.312180,382.665924 209.312180,386.610901 209.312180,390.776978 
	C211.216949,390.776978 212.786758,390.776978 214.883011,390.776978 
	C214.883011,386.497711 214.883011,382.432678 214.883011,377.971252 
	C219.145508,377.971252 222.900574,377.971252 226.768982,377.971252 
	C226.768982,376.152405 226.768982,374.761383 226.768982,372.979950 
	C223.576660,372.979950 220.593048,373.208588 217.676575,372.865845 
	C216.531998,372.731354 215.537796,371.317383 214.463379,369.518341 
M253.597610,372.993500 
	C251.065002,373.310638 249.503433,372.768524 249.759140,369.636139 
	C250.011993,366.538757 249.814392,363.404541 249.814392,360.228516 
	C247.820633,360.228516 246.376633,360.228516 244.418640,360.228516 
	C244.418640,364.517731 244.418640,368.588898 244.418640,373.118591 
	C240.001846,373.118591 236.084625,373.118591 231.894241,373.118591 
	C232.062881,375.020844 232.186462,376.414825 232.351608,378.277649 
	C236.565109,378.277649 240.448761,378.277649 244.660736,378.277649 
	C244.660736,382.738678 244.660736,386.696899 244.660736,390.720917 
	C246.580093,390.720917 248.146194,390.720917 250.179276,390.720917 
	C250.179276,386.378082 250.179276,382.304626 250.179276,377.843445 
	C254.405777,377.843445 258.163330,377.843445 262.208527,377.843445 
	C262.069336,376.013702 261.963623,374.623749 261.839661,372.993744 
	C259.167145,372.993744 256.859161,372.993744 253.597610,372.993500 
z"/>
<path fill="#FEFDFE" opacity="1.000000" stroke="none" 
	d="
M359.689240,358.665955 
	C346.658234,363.881592 333.920685,368.799042 321.336670,374.082275 
	C317.750824,375.587708 315.594086,375.261414 312.756226,372.396088 
	C284.272491,343.636230 255.599152,315.064148 227.022568,286.395996 
	C225.620926,284.989868 224.621078,283.183197 223.347260,281.444489 
	C208.183868,293.231567 193.999588,304.254822 179.818604,315.282318 
	C174.953873,319.065277 170.204147,323.011353 165.162491,326.541016 
	C163.891525,327.430786 161.392456,327.691010 159.982498,327.062775 
	C153.906052,324.355255 147.926376,321.383362 142.140625,318.103455 
	C140.668457,317.268890 139.157166,314.953888 139.149765,313.312408 
	C138.981644,275.999817 138.987350,238.686111 139.137680,201.373352 
	C139.143845,199.841919 140.505493,197.661606 141.861755,196.902954 
	C147.812912,193.574051 153.895050,190.423172 160.163452,187.757416 
	C161.711594,187.099030 164.591995,187.907257 166.088974,189.050674 
	C182.368683,201.485321 198.493866,214.122238 214.663757,226.700684 
	C217.155396,228.638916 219.660202,230.560196 222.496368,232.749863 
	C223.983246,231.329529 225.414688,230.015961 226.787048,228.643280 
	C255.524002,199.899719 284.290833,171.185791 312.924377,142.339539 
	C315.543915,139.700500 317.524994,139.216019 321.048798,140.680710 
	C337.802185,147.644196 354.666656,154.348083 371.593842,160.879333 
	C374.997070,162.192444 375.953400,163.937515 375.947205,167.449509 
	C375.841156,227.417236 375.831177,287.385284 375.963776,347.352905 
	C375.972260,351.195587 374.766724,353.034637 371.189331,354.124481 
	C367.381592,355.284576 363.749664,357.021545 359.689240,358.665955 
M316.077667,210.367691 
	C314.954285,210.871597 313.676300,211.176010 312.730316,211.908875 
	C294.164673,226.292175 275.634857,240.721771 257.111328,255.159363 
	C256.246552,255.833405 255.508209,256.669708 254.462280,257.667786 
	C275.006409,273.648590 295.277496,289.416962 316.320709,305.785950 
	C316.320709,273.446014 316.320709,242.319763 316.077667,210.367691 
M195.646469,259.831696 
	C196.300995,259.085968 196.955521,258.340210 197.257919,257.995667 
	C185.816391,246.527512 174.476959,235.161667 163.175476,223.833862 
	C163.175476,246.144684 163.175476,268.779083 163.175476,292.281097 
	C174.215332,281.235229 184.656784,270.788086 195.646469,259.831696 
z"/>
<path fill="#F9F6FA" opacity="1.000000" stroke="none" 
	d="
M176.143951,388.358093 
	C180.763306,388.513428 185.013794,388.513428 189.889526,388.513428 
	C190.993958,390.854034 189.773788,392.381439 186.229279,393.251526 
	C171.932175,396.761017 162.008286,389.287567 162.067566,374.542389 
	C162.083984,370.459808 162.552292,366.171783 163.871811,362.342804 
	C167.103165,352.966095 176.753403,348.780884 186.148682,351.965637 
	C189.386505,353.063232 190.937073,354.763550 189.615936,358.230560 
	C174.383240,353.027802 166.747437,359.083191 167.962921,375.410706 
	C168.378372,380.991577 169.964355,385.897614 176.143951,388.358093 
z"/>
<path fill="#F9F7FA" opacity="1.000000" stroke="none" 
	d="
M214.469238,370.002197 
	C215.537796,371.317383 216.531998,372.731354 217.676575,372.865845 
	C220.593048,373.208588 223.576660,372.979950 226.768982,372.979950 
	C226.768982,374.761383 226.768982,376.152405 226.768982,377.971252 
	C222.900574,377.971252 219.145508,377.971252 214.883011,377.971252 
	C214.883011,382.432678 214.883011,386.497711 214.883011,390.776978 
	C212.786758,390.776978 211.216949,390.776978 209.312180,390.776978 
	C209.312180,386.610901 209.312180,382.665924 209.312180,378.169861 
	C205.107849,378.169861 201.219513,378.169861 197.089844,378.169861 
	C197.089844,376.233795 197.089844,374.847046 197.089844,373.065552 
	C200.988785,373.065552 204.746933,373.065552 209.031555,373.065552 
	C209.031555,368.648193 209.031555,364.587677 209.031555,360.255310 
	C210.962402,360.155090 212.378952,360.081543 214.463379,359.973328 
	C214.463379,363.338898 214.463379,366.428619 214.469238,370.002197 
z"/>
<path fill="#FDFCFD" opacity="1.000000" stroke="none" 
	d="
M254.074371,372.993622 
	C256.859161,372.993744 259.167145,372.993744 261.839661,372.993744 
	C261.963623,374.623749 262.069336,376.013702 262.208527,377.843445 
	C258.163330,377.843445 254.405777,377.843445 250.179276,377.843445 
	C250.179276,382.304626 250.179276,386.378082 250.179276,390.720917 
	C248.146194,390.720917 246.580093,390.720917 244.660736,390.720917 
	C244.660736,386.696899 244.660736,382.738678 244.660736,378.277649 
	C240.448761,378.277649 236.565109,378.277649 232.351608,378.277649 
	C232.186462,376.414825 232.062881,375.020844 231.894241,373.118591 
	C236.084625,373.118591 240.001846,373.118591 244.418640,373.118591 
	C244.418640,368.588898 244.418640,364.517731 244.418640,360.228516 
	C246.376633,360.228516 247.820633,360.228516 249.814392,360.228516 
	C249.814392,363.404541 250.011993,366.538757 249.759140,369.636139 
	C249.503433,372.768524 251.065002,373.310638 254.074371,372.993622 
z"/>
<path fill="#69227B" opacity="1.000000" stroke="none" 
	d="
M316.199188,210.780609 
	C316.320709,242.319763 316.320709,273.446014 316.320709,305.785950 
	C295.277496,289.416962 275.006409,273.648590 254.462280,257.667786 
	C255.508209,256.669708 256.246552,255.833405 257.111328,255.159363 
	C275.634857,240.721771 294.164673,226.292175 312.730316,211.908875 
	C313.676300,211.176010 314.954285,210.871597 316.199188,210.780609 
z"/>
<path fill="#69227B" opacity="1.000000" stroke="none" 
	d="
M195.372345,260.086304 
	C184.656784,270.788086 174.215332,281.235229 163.175476,292.281097 
	C163.175476,268.779083 163.175476,246.144684 163.175476,223.833862 
	C174.476959,235.161667 185.816391,246.527512 197.257919,257.995667 
	C196.955521,258.340210 196.300995,259.085968 195.372345,260.086304 
z"/>
</svg>